<svg width="37" height="37" viewBox="0 0 37 37" fill="none" xmlns="http://www.w3.org/2000/svg">
<path d="M35.8438 23.1247C35.2055 23.1247 34.6875 23.6427 34.6875 24.281V32.3747H2.3125V18.4997H15.0312C15.6695 18.4997 16.1875 17.9817 16.1875 17.3435C16.1875 16.7052 15.6695 16.1872 15.0312 16.1872H2.3125V11.5622H15.0312C15.6695 11.5622 16.1875 11.0442 16.1875 10.406C16.1875 9.76771 15.6695 9.24971 15.0312 9.24971H2.3125C1.036 9.24971 0 10.2857 0 11.5622V32.3747C0 33.6512 1.036 34.6872 2.3125 34.6872H34.6875C35.964 34.6872 37 33.6512 37 32.3747V24.281C37 23.6427 36.482 23.1247 35.8438 23.1247Z" fill="#088155"/>
<path d="M10.4062 23.1247H5.78125C5.143 23.1247 4.625 23.6427 4.625 24.281C4.625 24.9192 5.143 25.4372 5.78125 25.4372H10.4062C11.0445 25.4372 11.5625 24.9192 11.5625 24.281C11.5625 23.6427 11.0445 23.1247 10.4062 23.1247Z" fill="#088155"/>
<path d="M36.2993 5.87346L28.2056 2.40471C27.9119 2.28215 27.5858 2.28215 27.2921 2.40471L19.1984 5.87346C18.7752 6.05615 18.5 6.47471 18.5 6.93721V11.5622C18.5 17.9239 20.8518 21.6424 27.1742 25.2846C27.3523 25.3863 27.5511 25.4372 27.75 25.4372C27.9489 25.4372 28.1477 25.3863 28.3258 25.2846C34.6482 21.6517 37 17.9332 37 11.5622V6.93721C37 6.47471 36.7248 6.05615 36.2993 5.87346ZM34.6875 11.5622C34.6875 16.9018 32.9207 19.841 27.75 22.9397C22.5792 19.834 20.8125 16.8948 20.8125 11.5622V7.70034L27.75 4.72646L34.6875 7.70034V11.5622Z" fill="#088155"/>
<path d="M28.0484 3.58064L19.6935 7.75806V16.1129L22.0806 19.6935L24.4677 22.6774L26.2581 23.871H28.0484L31.0322 22.0806L34.6129 17.9032L35.8064 13.129L35.2097 7.16129L28.0484 3.58064Z" fill="#088155"/>
<path d="M31.9426 9.50177C31.4454 9.10865 30.7192 9.18496 30.3169 9.68215L26.6816 14.2285L25.2432 12.0779C24.8848 11.546 24.1656 11.405 23.6407 11.7565C23.1111 12.1103 22.9654 12.8295 23.3192 13.359L25.6317 16.8278C25.8376 17.1353 26.1752 17.325 26.5452 17.3435C26.5614 17.3435 26.5799 17.3435 26.5937 17.3435C26.9429 17.3435 27.2759 17.1862 27.4979 16.9087L32.1229 11.1275C32.5207 10.628 32.4421 9.90184 31.9426 9.50177Z" fill="white"/>
</svg>
