<svg width="59" height="36" viewBox="0 0 59 36" fill="none" xmlns="http://www.w3.org/2000/svg">
<path fill-rule="evenodd" clip-rule="evenodd" d="M43.8568 33.7811C41.3316 33.7811 34.7908 33.7913 29.9297 35.9113H29.7581C34.9911 33.7525 41.5734 33.3843 43.8319 33.3843H45.255C45.6113 33.3151 45.9786 33.2172 46.3293 33.1009C47.1719 32.8259 47.89 32.369 48.4041 31.663C48.9726 30.8914 49.1664 29.9039 49.1664 28.801C49.1664 28.801 49.1756 13.7212 49.1664 5.14534V4.34239L43.8328 4.33593C43.0852 4.33593 41.9758 4.39131 40.6561 4.5602L40.9652 4.92015C42.2103 6.42268 43.1526 8.19932 43.7663 10.2639C44.4068 12.3313 44.7373 14.5039 44.7373 16.7844C44.7373 19.5578 44.3339 21.9999 43.5633 24.1393C42.7843 26.2777 41.7313 28.0137 40.4189 29.3824C39.0538 30.8047 37.447 31.8744 35.5698 32.5979C34.3857 33.0529 33.0991 33.3686 31.7221 33.5403C34.0848 32.909 35.9842 31.3446 37.3778 28.9219L37.7627 28.214C39.304 25.1646 40.0395 21.3354 40.0432 16.7844C40.0432 11.9889 39.2772 8.06088 37.6381 5.09181C35.1545 5.66218 32.4106 6.62757 30.047 8.2307C33.3114 10.5436 35.771 14.0839 35.771 19.484C35.771 23.0982 35.0437 26.143 33.8033 28.0857C32.7115 29.7073 31.1831 30.6173 29.2366 30.6367C27.2671 30.6173 25.639 29.5855 24.5454 27.9547C23.292 26.0128 22.6506 23.0982 22.6506 19.484C22.6506 14.0839 25.1028 10.5436 28.3709 8.2307C26.0101 6.62757 23.2616 5.66218 20.7798 5.09089C19.1398 8.06088 18.3746 11.9935 18.3746 16.7844C18.3746 21.3354 19.101 25.1683 20.6257 28.214L21.0078 28.9219C22.4042 31.352 24.3156 32.9191 26.6912 33.5513C25.1028 33.3584 23.6547 32.9773 22.3423 32.4207C20.3534 31.5772 18.7733 30.4244 17.568 28.9948C16.2759 27.472 15.2985 25.687 14.6478 23.6178C14.0055 21.5163 13.6825 19.2477 13.6825 16.7844C13.6825 14.3691 13.9926 12.1753 14.6128 10.1827C15.245 8.20394 16.2214 6.42637 17.544 4.82324L17.7692 4.5602C16.4476 4.39131 15.3345 4.33593 14.5851 4.33593C9.24039 4.33593 9.25239 4.34239 9.25239 4.34239V5.14534C9.24039 13.7212 9.25239 28.801 9.25239 28.801C9.25239 29.9039 9.44343 30.8914 10.0138 31.663C10.527 32.369 11.2441 32.8259 12.0876 33.1009C12.4393 33.2172 12.8057 33.3151 13.1638 33.3843H14.5851C16.8472 33.3843 23.4305 33.7525 28.6616 35.9113H28.4854C23.6261 33.7913 17.0853 33.7811 14.5851 33.7811H9.1481H0L0.373787 33.579C0.991228 33.5033 1.81264 33.3584 2.49838 33.1009C3.33732 32.8259 4.06459 32.369 4.57405 31.663C5.14627 30.8877 5.33731 29.8661 5.341 28.801C5.341 28.801 5.34839 4.78171 5.34285 0H6.48821C8.46882 2.34148 12.1762 3.67234 14.5851 3.94276C15.3483 3.94276 16.598 3.98706 18.1291 4.16519C19.268 2.96907 20.6727 1.99261 22.3608 1.2395C23.6889 0.647898 25.1591 0.252883 26.7835 0.05353C24.4835 0.661742 22.5989 2.1532 21.1545 4.45222C23.6843 5.15273 26.6423 6.0775 29.2099 7.67971C31.7775 6.0775 34.7327 5.15365 37.364 4.62481C35.8347 2.1412 33.9546 0.645129 31.6639 0.0443007C33.3843 0.241808 34.8905 0.650667 36.1918 1.26534C37.7913 2.01107 39.1554 2.98291 40.2906 4.16519C41.8153 3.98706 43.0704 3.94276 43.8328 3.94276C46.2416 3.67234 49.9491 2.34148 51.926 0H53.0741C53.0649 4.78171 53.0741 28.801 53.0741 28.801C53.0741 29.8661 53.267 30.8877 53.8392 31.663C54.3524 32.369 55.0759 32.8259 55.9149 33.1009C56.5988 33.3584 57.422 33.5033 58.0422 33.579L58.4197 33.6178L43.8568 33.7811ZM24.1494 19.484C24.1494 23.0465 24.574 25.8799 25.4849 27.7729L25.5264 27.8559C26.3525 29.507 27.5504 30.4152 29.184 30.4309C30.8416 30.4152 32.058 29.507 32.885 27.8559C33.8051 25.9667 34.2721 23.0465 34.2721 19.484C34.2721 14.49 32.1208 11.1075 29.2099 8.84076C26.298 11.1075 24.1494 14.49 24.1494 19.484Z" fill="#088155"/>
</svg>
