<svg width="19" height="16" viewBox="0 0 19 16" fill="none" xmlns="http://www.w3.org/2000/svg">
<path d="M17.9276 9.39761C17.6312 8.99569 17.4938 8.5048 17.4944 8.00871C17.4944 8.00583 17.4944 8.00295 17.4944 8.00002C17.4944 3.58174 13.8438 0 9.34053 0C8.35539 0 7.41145 0.172024 6.53734 0.486404C6.06446 0.656463 5.54643 0.689149 5.06162 0.555159C4.63338 0.436804 4.17592 0.386883 3.70201 0.418884C1.71129 0.553285 0.108641 2.15398 0.00548225 4.10916C-0.0437675 5.04237 0.24148 5.90807 0.753455 6.60239C1.04984 7.00431 1.1872 7.4952 1.18659 7.99129C1.18659 7.99417 1.18659 7.99705 1.18659 7.99998C1.18659 12.4183 4.83718 16 9.34048 16C10.3257 16 11.2696 15.828 12.1437 15.5136C12.6165 15.3435 13.1346 15.3109 13.6194 15.4448C14.0476 15.5632 14.505 15.6131 14.979 15.5811C16.9697 15.4467 18.5723 13.8461 18.6755 11.8909C18.7248 10.9577 18.4395 10.092 17.9276 9.39761ZM9.63901 6.56577C11.2831 6.94936 13.7676 7.52902 13.7676 10.2141C13.7676 11.5368 13.1037 12.5458 11.8981 13.0552C11.0378 13.4187 10.0641 13.4678 9.22507 13.4678C6.64675 13.4678 5.01829 11.5008 4.95022 11.417C4.52798 10.8974 4.61488 10.1403 5.14451 9.72603C5.67401 9.31158 6.44569 9.39706 6.86802 9.91652C6.8718 9.92095 7.84566 11.0183 9.22507 11.0612C10.8861 11.1129 11.2657 10.628 11.3147 10.2141C11.3747 9.70861 10.9163 9.3375 9.0714 8.90705C7.50762 8.54215 5.14414 7.99074 5.14414 5.5179C5.14414 4.74784 5.46336 2.23526 9.57117 2.23526C12.165 2.23526 13.696 4.23889 13.7599 4.3242C14.1611 4.85965 14.044 5.61285 13.4982 6.00641C12.9548 6.39827 12.192 6.28613 11.7893 5.75717C11.7604 5.72073 10.884 4.76411 9.57117 4.64182C8.57779 4.54925 7.59698 4.9007 7.59698 5.41989C7.59698 5.96997 7.87864 6.15502 9.63901 6.56577Z" fill="white"/>
</svg>
