<svg width="18" height="18" viewBox="0 0 18 18" fill="none" xmlns="http://www.w3.org/2000/svg">
<path d="M16.8446 11.9783C16.7346 11.9533 16.6196 11.9333 16.4995 11.9333C16.4945 11.9333 16.4895 11.9333 16.4845 11.9333C14.7791 11.7183 13.1886 11.1531 11.7832 10.3029L9.60265 12.5335C7.9922 11.4482 6.59682 9.99778 5.51152 8.49737H5.50152H5.50652L7.68712 6.26674C6.83688 4.86135 6.27173 3.24091 6.05667 1.54044C6.05667 1.53543 6.05667 1.52042 6.05667 1.51542C6.05667 1.39539 6.04167 1.27536 6.01166 1.16533C5.85661 0.500147 5.26145 0 4.55125 0H2.95081H1.50542C0.685189 0 0.0250069 0.655183 0.00500137 1.47041C0.00500137 1.48041 0 1.49542 0 1.50542C0 1.59045 0.0100027 1.67547 0.0250069 1.7605C0.340094 5.04141 1.52542 8.05224 3.34092 10.5729C4.47623 12.1434 5.85662 13.5237 7.42705 14.6591C9.95274 16.4796 12.9636 17.6599 16.2345 17.975C16.3195 17.99 16.4045 18 16.4945 18C16.5096 18 16.5196 17.995 16.5296 17.995C17.3448 17.975 18 17.3148 18 16.4946V15.0492V13.4437C18.005 12.7285 17.5098 12.1334 16.8446 11.9783Z" fill="#C4C4C4"/>
</svg>
