<svg width="12" height="23" viewBox="0 0 12 23" fill="none" xmlns="http://www.w3.org/2000/svg">
<path d="M10.1533 5.75V16.33C10.1533 18.42 8.62332 20.28 6.54332 20.48C4.15332 20.71 2.15332 18.84 2.15332 16.5V4.14C2.15332 2.83 3.09332 1.64 4.39332 1.51C5.89332 1.36 7.15332 2.53 7.15332 4V14.5C7.15332 15.05 6.70332 15.5 6.15332 15.5C5.60332 15.5 5.15332 15.05 5.15332 14.5V5.75C5.15332 5.34 4.81332 5 4.40332 5C3.99332 5 3.65332 5.34 3.65332 5.75V14.36C3.65332 15.67 4.59332 16.86 5.89332 16.99C7.39332 17.14 8.65332 15.97 8.65332 14.5V4.17C8.65332 2.08 7.12332 0.220001 5.04332 0.0200011C2.66332 -0.209999 0.65332 1.66 0.65332 4V16.27C0.65332 19.14 2.75332 21.71 5.61332 21.98C8.90332 22.28 11.6533 19.72 11.6533 16.5V5.75C11.6533 5.34 11.3133 5 10.9033 5C10.4933 5 10.1533 5.34 10.1533 5.75Z" fill="#F1931F"/>
</svg>
