<svg width="17" height="17" viewBox="0 0 17 17" fill="none" xmlns="http://www.w3.org/2000/svg">
<path d="M17 15.6636L13.515 12.1786C14.5114 10.8989 15.1111 9.29806 15.1111 7.55556C15.1111 3.39056 11.7206 0 7.55556 0C3.39056 0 0 3.39056 0 7.55556C0 11.7206 3.39056 15.1111 7.55556 15.1111C9.29806 15.1111 10.9036 14.5114 12.1786 13.515L15.6636 17L17 15.6636ZM1.88889 7.55556C1.88889 4.42944 4.42944 1.88889 7.55556 1.88889C10.6817 1.88889 13.2222 4.42944 13.2222 7.55556C13.2222 10.6817 10.6817 13.2222 7.55556 13.2222C4.42944 13.2222 1.88889 10.6817 1.88889 7.55556Z" fill="white"/>
</svg>
