<svg width="96" height="39" viewBox="0 0 96 39" fill="none" xmlns="http://www.w3.org/2000/svg">
<rect width="96" height="39" rx="5" fill="#1877F2"/>
<path d="M22.5 11C17.8057 11 14 14.8252 14 19.5437C14 22.6541 15.6552 25.3707 18.1279 26.862C19.6236 27.764 21.2296 26.4098 21.2296 24.6631V22.8596C21.2296 22.2789 20.7589 21.8082 20.1781 21.8082C19.5974 21.8082 19.1267 21.3374 19.1267 20.7567V20.6138C19.1267 20.0331 19.5974 19.5623 20.1781 19.5623C20.7589 19.5623 21.2296 19.0916 21.2296 18.5108V18.068C21.2296 15.5938 22.4289 14.5076 24.4747 14.5076C24.8019 14.5076 25.0776 14.5157 25.3088 14.5278C25.8316 14.5551 26.218 15.0043 26.218 15.5278C26.218 16.1058 25.7494 16.5744 25.1714 16.5744H24.8224C23.9539 16.5744 23.6506 17.4019 23.6506 18.3348V18.3869C23.6506 19.0361 24.1768 19.5623 24.826 19.5623H24.8871C25.5753 19.5623 26.1016 20.1757 25.997 20.8559C25.9127 21.4038 25.4414 21.8082 24.8871 21.8082H24.8347C24.1807 21.8082 23.6506 22.3383 23.6506 22.9922V24.6939C23.6506 26.4427 25.2457 27.8107 26.7572 26.9311C29.2934 25.4551 31 22.7019 31 19.5437C31 14.8252 27.1943 11 22.5 11Z" fill="white"/>
<path d="M47.958 17.664C47.8927 17.5987 47.7713 17.51 47.594 17.398C47.426 17.286 47.216 17.1787 46.964 17.076C46.7213 16.9733 46.4553 16.8847 46.166 16.81C45.8767 16.726 45.5827 16.684 45.284 16.684C44.7613 16.684 44.3647 16.782 44.094 16.978C43.8327 17.174 43.702 17.4493 43.702 17.804C43.702 18.0747 43.786 18.2893 43.954 18.448C44.122 18.6067 44.374 18.742 44.71 18.854C45.046 18.966 45.466 19.0873 45.97 19.218C46.6233 19.3767 47.188 19.5727 47.664 19.806C48.1493 20.03 48.518 20.3287 48.77 20.702C49.0313 21.066 49.162 21.5513 49.162 22.158C49.162 22.69 49.064 23.1473 48.868 23.53C48.672 23.9033 48.4013 24.2067 48.056 24.44C47.7107 24.6733 47.3187 24.846 46.88 24.958C46.4413 25.0607 45.9747 25.112 45.48 25.112C44.9853 25.112 44.4907 25.0607 43.996 24.958C43.5013 24.8553 43.0253 24.7107 42.568 24.524C42.1107 24.328 41.6907 24.0947 41.308 23.824L42.162 22.158C42.246 22.242 42.3953 22.354 42.61 22.494C42.8247 22.6247 43.086 22.76 43.394 22.9C43.702 23.0307 44.038 23.1427 44.402 23.236C44.766 23.3293 45.1347 23.376 45.508 23.376C46.0307 23.376 46.4273 23.2873 46.698 23.11C46.9687 22.9327 47.104 22.6807 47.104 22.354C47.104 22.0553 46.9967 21.822 46.782 21.654C46.5673 21.486 46.2687 21.3413 45.886 21.22C45.5033 21.0893 45.0507 20.9493 44.528 20.8C43.9027 20.6227 43.38 20.4267 42.96 20.212C42.54 19.988 42.2273 19.708 42.022 19.372C41.8167 19.036 41.714 18.616 41.714 18.112C41.714 17.4307 41.8727 16.8613 42.19 16.404C42.5167 15.9373 42.9553 15.5873 43.506 15.354C44.0567 15.1113 44.668 14.99 45.34 14.99C45.8067 14.99 46.2453 15.0413 46.656 15.144C47.076 15.2467 47.468 15.382 47.832 15.55C48.196 15.718 48.5227 15.9 48.812 16.096L47.958 17.664ZM57.2306 25H55.3546V20.884C55.3546 20.3147 55.2426 19.89 55.0186 19.61C54.8039 19.33 54.5053 19.19 54.1226 19.19C53.8986 19.19 53.6606 19.2553 53.4086 19.386C53.1566 19.5167 52.9279 19.6987 52.7226 19.932C52.5266 20.156 52.3819 20.4173 52.2886 20.716V25H50.4126V14.78H52.2886V19.022C52.5593 18.5553 52.9279 18.1913 53.3946 17.93C53.8613 17.6687 54.3699 17.538 54.9206 17.538C55.3966 17.538 55.7839 17.622 56.0826 17.79C56.3813 17.9487 56.6146 18.168 56.7826 18.448C56.9506 18.7187 57.0673 19.0267 57.1326 19.372C57.1979 19.708 57.2306 20.058 57.2306 20.422V25ZM58.3578 22.83C58.3578 22.354 58.4885 21.9387 58.7498 21.584C59.0205 21.22 59.3938 20.94 59.8698 20.744C60.3458 20.548 60.8918 20.45 61.5078 20.45C61.8158 20.45 62.1285 20.4733 62.4458 20.52C62.7631 20.5667 63.0385 20.6413 63.2718 20.744V20.352C63.2718 19.8853 63.1318 19.526 62.8518 19.274C62.5811 19.022 62.1751 18.896 61.6338 18.896C61.2325 18.896 60.8498 18.966 60.4858 19.106C60.1218 19.246 59.7391 19.4513 59.3378 19.722L58.7358 18.49C59.2211 18.1727 59.7158 17.9347 60.2198 17.776C60.7331 17.6173 61.2698 17.538 61.8298 17.538C62.8751 17.538 63.6871 17.7993 64.2658 18.322C64.8538 18.8447 65.1478 19.5913 65.1478 20.562V22.9C65.1478 23.096 65.1805 23.236 65.2458 23.32C65.3205 23.404 65.4371 23.4553 65.5958 23.474V25C65.4278 25.028 65.2738 25.0513 65.1338 25.07C65.0031 25.0887 64.8911 25.098 64.7978 25.098C64.4245 25.098 64.1398 25.014 63.9438 24.846C63.7571 24.678 63.6405 24.4727 63.5938 24.23L63.5518 23.852C63.2345 24.2627 62.8378 24.58 62.3618 24.804C61.8858 25.028 61.4005 25.14 60.9058 25.14C60.4205 25.14 59.9818 25.042 59.5898 24.846C59.2071 24.6407 58.9038 24.3653 58.6798 24.02C58.4651 23.6653 58.3578 23.2687 58.3578 22.83ZM62.9218 23.208C63.0245 23.096 63.1085 22.984 63.1738 22.872C63.2391 22.76 63.2718 22.6573 63.2718 22.564V21.822C63.0478 21.7287 62.8051 21.6587 62.5438 21.612C62.2825 21.556 62.0351 21.528 61.8018 21.528C61.3165 21.528 60.9151 21.6353 60.5978 21.85C60.2898 22.0553 60.1358 22.3307 60.1358 22.676C60.1358 22.8627 60.1871 23.04 60.2898 23.208C60.3925 23.376 60.5418 23.5113 60.7378 23.614C60.9338 23.7167 61.1671 23.768 61.4378 23.768C61.7178 23.768 61.9931 23.7167 62.2638 23.614C62.5345 23.502 62.7538 23.3667 62.9218 23.208ZM71.2689 19.288C70.6995 19.288 70.1909 19.4 69.7429 19.624C69.2949 19.8387 68.9729 20.1513 68.7769 20.562V25H66.9009V17.664H68.6229V19.232C68.8842 18.728 69.2155 18.3313 69.6169 18.042C70.0182 17.7527 70.4429 17.594 70.8909 17.566C70.9935 17.566 71.0729 17.566 71.1289 17.566C71.1849 17.566 71.2315 17.5707 71.2689 17.58V19.288ZM75.6212 25.14C75.0332 25.14 74.5012 25.042 74.0252 24.846C73.5492 24.6407 73.1432 24.3653 72.8072 24.02C72.4712 23.6653 72.2099 23.264 72.0232 22.816C71.8459 22.3587 71.7572 21.878 71.7572 21.374C71.7572 20.674 71.9112 20.0347 72.2192 19.456C72.5366 18.8773 72.9846 18.4153 73.5632 18.07C74.1512 17.7153 74.8419 17.538 75.6352 17.538C76.4379 17.538 77.1239 17.7153 77.6932 18.07C78.2626 18.4153 78.6966 18.8773 78.9952 19.456C79.3032 20.0253 79.4572 20.6413 79.4572 21.304C79.4572 21.416 79.4526 21.5327 79.4432 21.654C79.4339 21.766 79.4246 21.8593 79.4152 21.934H73.7452C73.7826 22.3073 73.8899 22.634 74.0672 22.914C74.2539 23.194 74.4872 23.4087 74.7672 23.558C75.0566 23.698 75.3646 23.768 75.6912 23.768C76.0646 23.768 76.4146 23.6793 76.7412 23.502C77.0772 23.3153 77.3059 23.0727 77.4272 22.774L79.0372 23.222C78.8599 23.5953 78.6032 23.9267 78.2672 24.216C77.9406 24.5053 77.5532 24.734 77.1052 24.902C76.6572 25.0607 76.1626 25.14 75.6212 25.14ZM73.7032 20.744H77.5392C77.5019 20.3707 77.3946 20.0487 77.2172 19.778C77.0492 19.498 76.8252 19.2833 76.5452 19.134C76.2652 18.9753 75.9526 18.896 75.6072 18.896C75.2712 18.896 74.9632 18.9753 74.6832 19.134C74.4126 19.2833 74.1886 19.498 74.0112 19.778C73.8432 20.0487 73.7406 20.3707 73.7032 20.744Z" fill="white"/>
</svg>
