<svg width="189" height="18" viewBox="0 0 189 18" fill="none" xmlns="http://www.w3.org/2000/svg">
<path fill-rule="evenodd" clip-rule="evenodd" d="M187.955 1.31641V1.96799C185.343 2.08059 185.343 2.47657 185.343 4.69161V13.693C185.343 16.0114 185.851 16.2984 188.103 16.4488V17.1022H180.119V16.4488C182.371 16.3759 182.759 16.0843 182.759 13.6154V4.7276C182.759 2.40182 182.261 2.11935 180.009 1.96799V1.31641H187.955ZM6.35901 0.550415V13.8129C6.33133 14.4541 6.37468 15.0964 6.48824 15.728C6.59063 16.0073 6.7862 16.2426 7.04197 16.3944C7.45692 16.5989 7.91868 16.6897 8.38018 16.6574H8.74937V17.1022H0.212256V16.6574H0.646007C1.14984 16.6911 1.65485 16.61 2.12279 16.4202C2.39752 16.2834 2.61131 16.0491 2.7226 15.7631C2.86638 15.1236 2.91924 14.4671 2.87954 13.8129V5.40318C2.90742 4.93484 2.87015 4.46489 2.76879 4.00679C2.69276 3.80481 2.54936 3.63527 2.36276 3.52685C2.16848 3.39022 1.93562 3.31913 1.69816 3.32383C1.18234 3.3516 0.677228 3.48179 0.212256 3.70683L0 3.27674L5.9621 0.550415H6.35901ZM21.9751 8.99154C21.9894 10.528 21.7619 12.0572 21.3012 13.5231C21.0759 14.2937 20.703 15.0131 20.203 15.6412C19.7682 16.1719 19.2394 16.618 18.6432 16.9573C18.0609 17.2773 17.4063 17.4425 16.742 17.4373C15.9939 17.447 15.2592 17.2378 14.6284 16.8355C13.9509 16.3954 13.3777 15.8127 12.9488 15.1281C12.5416 14.4534 12.2339 13.7236 12.0351 12.961C11.686 11.7327 11.512 10.4613 11.5182 9.18442C11.5022 7.53738 11.7516 5.89849 12.2566 4.33069C12.5807 3.23293 13.227 2.2578 14.1117 1.53148C14.85 0.912582 15.7787 0.566227 16.742 0.550415C17.704 0.557549 18.6337 0.898428 19.3723 1.51486C20.2119 2.18381 20.8401 3.08125 21.1812 4.09906C21.727 5.67164 21.9957 7.32707 21.9751 8.99154ZM18.2926 8.96659C18.2926 6.13411 18.2833 4.47748 18.2556 4.00679C18.264 3.21826 18.0634 2.44155 17.6742 1.75574C17.5534 1.62141 17.4028 1.51725 17.2346 1.45155C17.0663 1.38584 16.8849 1.36042 16.705 1.37736C16.5576 1.36903 16.4101 1.38981 16.2707 1.43859C16.1314 1.48737 16.0029 1.56317 15.8929 1.66161C15.5399 2.07903 15.3298 2.59843 15.293 3.14385C15.1915 3.84712 15.1392 6.30827 15.1361 10.5273C15.0914 12.0695 15.1716 13.6127 15.3761 15.142C15.4283 15.564 15.6086 15.9599 15.8929 16.2762C16.1431 16.4771 16.4586 16.5786 16.7789 16.5614C16.9479 16.5742 17.1174 16.5462 17.2732 16.4797C17.429 16.4132 17.5665 16.3101 17.6742 16.1793C18.0638 15.5612 18.2658 14.8435 18.2556 14.1129L18.2926 8.96659ZM30.8536 0.550415V13.8129C30.826 14.4541 30.8693 15.0964 30.9829 15.728C31.0853 16.0073 31.2808 16.2426 31.5366 16.3944C31.9516 16.5989 32.4133 16.6897 32.8748 16.6574H33.2533V17.1022H24.7069V16.6574H25.1406C25.6445 16.6911 26.1494 16.61 26.6173 16.4202C26.8941 16.2862 27.1089 16.0509 27.2172 15.7631C27.361 15.1236 27.4139 14.4671 27.3742 13.8129V5.40318C27.3981 4.93531 27.364 4.46628 27.2727 4.00679C27.1898 3.80612 27.044 3.63771 26.8573 3.52685C26.6637 3.38891 26.4305 3.31768 26.1928 3.32383C25.677 3.3516 25.1719 3.48179 24.7069 3.70683L24.4946 3.27674L30.466 0.550415H30.8536ZM52.9116 1.31641H58.0432V1.96799C56.2619 1.96799 55.7174 2.11938 55.7543 3.02201C55.7543 3.27673 55.7912 4.29379 55.8189 5.09212L56.3726 13.693C56.5203 15.8683 56.548 16.518 58.9292 16.4488V17.1022H51.3889V16.4488C52.9486 16.3408 53.9638 16.2301 53.9638 15.1041C53.9638 14.7036 53.9269 13.9108 53.89 13.4715L53.2347 3.38562L47.2449 17.1022H46.5527L40.7567 3.38562L39.843 14.2356C39.8153 14.5956 39.7783 15.1041 39.7783 15.3228C39.7783 16.1535 40.6736 16.4488 41.9841 16.4488V17.1022H35.8928V16.4488C36.6958 16.4128 37.9602 16.3408 38.3201 15.8683C38.6449 15.0603 38.805 14.1955 38.7908 13.3247L39.5938 3.71049C39.7045 2.1895 39.4461 2.11935 37.3787 1.96799V1.31641H42.5656L47.6879 13.3247L52.9116 1.31641ZM65.7404 2.11935V8.64725H69.6628C70.9734 8.64725 71.4072 8.64727 71.5457 6.68512H72.2748V11.584H71.5457C71.4718 9.59233 71.1857 9.44101 69.4136 9.44101H65.7404V14.6315C65.7404 16.1931 65.8142 16.1932 67.374 16.1932H70.1336C71.7671 16.1932 72.6071 15.9735 73.29 13.2536H73.9822L73.65 17.1022H60.5535V16.482C62.8793 16.5568 63.1378 15.8683 63.1378 14.3814V4.07506C63.1378 2.2292 62.584 1.93292 60.5535 1.96799V1.31641H72.967L73.1054 4.7636H72.4501C72.0625 2.36398 71.4718 2.11935 69.6998 2.11935H65.7404ZM75.8373 17.1022V16.4488C78.2646 16.3408 78.6614 16.1212 78.6614 14.087V4.47287C78.6614 2.5864 78.4492 2.25781 75.8373 2.22458V1.56748C78.4617 1.28889 81.0985 1.14379 83.7376 1.13277C85.8049 1.13277 93.7883 1.53331 93.7883 8.96845C93.7788 10.7281 93.1814 12.4342 92.0911 13.8154C91.0009 15.1967 89.4801 16.1739 87.7708 16.5919C85.9322 16.9543 84.0609 17.1241 82.1871 17.0986H75.8373V17.1022ZM81.2734 1.96619V14.6297C81.2332 15.0453 81.2708 15.4646 81.3841 15.8664C81.6333 16.2965 82.9808 16.339 83.5253 16.339C89.9766 16.339 90.9642 11.5121 90.9642 8.97031C90.9642 7.37456 90.5673 4.07324 87.4385 2.69438C85.6296 1.89789 83.3038 1.93661 81.2734 1.96799V1.96619ZM104.42 1.3146V1.96619C101.809 2.07879 101.809 2.47471 101.809 4.68975V13.6911C101.809 16.0095 102.316 16.2965 104.568 16.447V17.1004H96.5848V16.447C98.8368 16.3741 99.2336 16.0824 99.2336 13.6136V4.72574C99.2336 2.39996 98.726 2.11755 96.4741 1.96619V1.3146H104.42ZM113.308 0.806046H115.92L120.886 14.3039C121.504 16.0473 121.615 16.339 123.507 16.447V17.1004H115.92V16.447C117.157 16.411 118.384 16.374 118.384 15.3551C118.321 14.6681 118.149 13.9955 117.877 13.3616L116.751 10.3159H111.527L110.696 12.4202C110.319 13.2585 110.085 14.1542 110.004 15.07C110.004 16.1941 111.204 16.2993 112.505 16.4544V17.1078H106.266V16.4544C108.121 16.0898 108.334 15.4705 109.174 13.4087L113.668 1.87206L113.308 0.806046ZM114.213 3.35059L111.924 9.25731H116.391L114.213 3.35059ZM125.389 4.83463L125.712 0.773769H126.22C126.344 0.98692 126.535 1.15212 126.765 1.24261C126.999 1.3059 127.242 1.33022 127.485 1.3146H138.08C139.067 1.3146 139.243 1.20662 139.427 0.773769H139.935L140.221 4.83463H139.64C139.132 2.54761 138.809 2.22272 137.138 2.22272H134.13V14.1581C134.13 16.2282 134.379 16.2965 137.102 16.447V17.1004H128.537V16.447C131.259 16.339 131.518 16.2282 131.518 14.3039V2.22272H128.251C126.838 2.22272 126.728 2.29473 125.999 4.83463H125.389ZM143.082 9.0072C143.082 3.42162 147.761 0.70082 151.795 0.70082C155.966 0.70082 160.424 3.42439 160.424 9.0072C160.424 15.0986 155.745 17.5323 151.758 17.5323C147.798 17.5342 143.082 15.1041 143.082 9.00906V9.0072ZM157.6 9.04596C157.6 3.45669 154.803 1.3146 151.684 1.3146C147.946 1.3146 145.906 4.90663 145.906 8.71834C145.906 12.7082 146.894 14.3039 147.909 15.321C148.403 15.8319 148.995 16.2369 149.651 16.5112C150.306 16.7856 151.01 16.9235 151.721 16.9167C154.471 16.9186 157.6 14.8484 157.6 9.04782V9.04596ZM168.26 10.2458V13.8729C168.26 16.0114 168.481 16.4488 170.041 16.4488H171.093V17.1022H163.073V16.4488H163.654C165.436 16.4488 165.648 15.7206 165.648 14.3427V4.07506C165.695 3.60825 165.595 3.13836 165.362 2.73128C165.066 2.33534 164.845 2.33533 163.036 2.22458V1.56748C165.156 1.31376 167.288 1.16866 169.423 1.13277C172.616 1.13277 176.455 1.86005 176.455 5.66991C176.455 8.6436 174.176 9.43732 173.013 9.83972C173.705 10.4544 173.926 10.6703 175.228 13.4677C176.391 15.9698 177.083 16.4783 178.421 16.698V17.3552C175.92 17.2453 174.397 16.6629 172.865 14.2679C172.468 13.6514 170.908 10.7838 170.585 10.243H168.26V10.2458ZM168.26 1.93295V9.59327H169.893C171.813 9.59327 173.742 8.72112 173.742 5.74467C173.777 5.22564 173.701 4.705 173.519 4.21792C173.336 3.73084 173.051 3.28866 172.682 2.92123C172.314 2.55379 171.871 2.26967 171.384 2.08803C170.896 1.9064 170.375 1.83147 169.856 1.86834C169.238 1.86373 168.62 1.89785 168.26 1.93661V1.93295Z" fill="#088155"/>
</svg>
