<svg width="16" height="9" viewBox="0 0 16 9" fill="none" xmlns="http://www.w3.org/2000/svg">
<path d="M8.07818 8.84332C8.11044 8.82347 8.13752 8.79657 8.16299 8.76855L15.3378 0.662137L15.3562 0.641516C15.4234 0.566249 15.4956 0.483631 15.4956 0.382739C15.4956 0.172233 15.2804 -7.42561e-09 15.0173 -1.65014e-08L0.572038 -5.14843e-07C0.308962 -5.23918e-07 0.0937176 0.172232 0.0937176 0.382739C0.0937175 0.483571 0.165957 0.566226 0.233105 0.641448L0.251572 0.662136L7.42636 8.76855C7.45184 8.79657 7.4789 8.82349 7.51118 8.8433C7.59155 8.89261 7.69221 8.92165 7.79946 8.92165C7.89876 8.92165 7.99806 8.89261 8.07818 8.84332Z" fill="#F1931F"/>
</svg>
