<svg width="20" height="20" viewBox="0 0 20 20" fill="none" xmlns="http://www.w3.org/2000/svg">
<path d="M10 0C4.48333 0 0 4.48333 0 10C0 15.5167 4.48333 20 10 20C15.5167 20 20 15.5167 20 10C20 4.48333 15.5167 0 10 0ZM10 17.7778C5.71111 17.7778 2.22222 14.2889 2.22222 10C2.22222 5.71111 5.71111 2.22222 10 2.22222C14.2889 2.22222 17.7778 5.71111 17.7778 10C17.7778 14.2889 14.2889 17.7778 10 17.7778Z" fill="white"/>
<path d="M11.1111 4.44434H8.88892V11.111H13.3334V8.88878H11.1111V4.44434Z" fill="white"/>
</svg>
