<svg width="121" height="20" viewBox="0 0 121 20" fill="none" xmlns="http://www.w3.org/2000/svg">
<path d="M34.0059 9.75879C35.013 9.75879 35.8105 10.0254 36.3984 10.5586C36.9863 11.0918 37.2803 11.8187 37.2803 12.7393C37.2803 13.8057 36.9453 14.6396 36.2754 15.2412C35.61 15.8382 34.6621 16.1367 33.4316 16.1367C32.3151 16.1367 31.4378 15.9567 30.7998 15.5967V14.1406C31.1689 14.3503 31.5928 14.512 32.0713 14.626C32.5498 14.7399 32.9941 14.7969 33.4043 14.7969C34.1289 14.7969 34.6803 14.6351 35.0586 14.3115C35.4368 13.988 35.626 13.514 35.626 12.8896C35.626 11.6956 34.8649 11.0986 33.3428 11.0986C33.1286 11.0986 32.8643 11.1214 32.5498 11.167C32.2354 11.208 31.9596 11.2559 31.7227 11.3105L31.0049 10.8867L31.3877 6.00586H36.583V7.43457H32.8027L32.5771 9.90918C32.7367 9.88184 32.9303 9.84993 33.1582 9.81348C33.3906 9.77702 33.6732 9.75879 34.0059 9.75879ZM49.1543 16H47.541V11.3379C47.541 10.7591 47.4316 10.3285 47.2129 10.0459C46.9941 9.75879 46.6523 9.61523 46.1875 9.61523C45.5677 9.61523 45.112 9.81803 44.8203 10.2236C44.5332 10.6247 44.3896 11.2946 44.3896 12.2334V16H42.7832V8.43945H44.041L44.2666 9.43066H44.3486C44.5583 9.07064 44.8613 8.79264 45.2578 8.59668C45.6589 8.40072 46.0986 8.30273 46.5771 8.30273C47.7393 8.30273 48.5094 8.69922 48.8877 9.49219H48.9971C49.2204 9.11849 49.5348 8.82682 49.9404 8.61719C50.346 8.40755 50.8109 8.30273 51.335 8.30273C52.2373 8.30273 52.8936 8.5306 53.3037 8.98633C53.7184 9.44206 53.9258 10.137 53.9258 11.0713V16H52.3193V11.3379C52.3193 10.7591 52.2077 10.3285 51.9844 10.0459C51.7656 9.75879 51.4238 9.61523 50.959 9.61523C50.3346 9.61523 49.8766 9.8112 49.585 10.2031C49.2979 10.5905 49.1543 11.1875 49.1543 11.9941V16ZM60.8984 16L60.5771 14.9473H60.5225C60.1579 15.4076 59.791 15.722 59.4219 15.8906C59.0527 16.0547 58.5788 16.1367 58 16.1367C57.2572 16.1367 56.6761 15.9362 56.2568 15.5352C55.8421 15.1341 55.6348 14.5667 55.6348 13.833C55.6348 13.0537 55.9242 12.4658 56.5029 12.0693C57.0817 11.6729 57.9635 11.4564 59.1484 11.4199L60.4541 11.3789V10.9756C60.4541 10.4925 60.3402 10.1325 60.1123 9.89551C59.889 9.65397 59.5404 9.5332 59.0664 9.5332C58.679 9.5332 58.3076 9.59017 57.9521 9.7041C57.5967 9.81803 57.2549 9.95247 56.9268 10.1074L56.4072 8.95898C56.8174 8.74479 57.2663 8.58301 57.7539 8.47363C58.2415 8.3597 58.7018 8.30273 59.1348 8.30273C60.0964 8.30273 60.821 8.51237 61.3086 8.93164C61.8008 9.35091 62.0469 10.0094 62.0469 10.9072V16H60.8984ZM58.5059 14.9062C59.0892 14.9062 59.5563 14.7445 59.9072 14.4209C60.2627 14.0928 60.4404 13.6348 60.4404 13.0469V12.3906L59.4697 12.4316C58.7132 12.459 58.1618 12.5866 57.8154 12.8145C57.4736 13.0378 57.3027 13.3818 57.3027 13.8467C57.3027 14.1839 57.403 14.446 57.6035 14.6328C57.804 14.8151 58.1048 14.9062 58.5059 14.9062ZM68.124 8.30273C68.4476 8.30273 68.7142 8.32552 68.9238 8.37109L68.7666 9.86816C68.5387 9.81348 68.3018 9.78613 68.0557 9.78613C67.4131 9.78613 66.8913 9.99577 66.4902 10.415C66.0938 10.8343 65.8955 11.3789 65.8955 12.0488V16H64.2891V8.43945H65.5469L65.7588 9.77246H65.8408C66.0915 9.32129 66.4173 8.96354 66.8184 8.69922C67.224 8.4349 67.6592 8.30273 68.124 8.30273ZM75.3838 16H69.6484V15.0088L73.4697 9.66992H69.8809V8.43945H75.2744V9.56055L71.5352 14.7695H75.3838V16ZM83.7373 12.2061C83.7373 13.4411 83.4206 14.4049 82.7871 15.0977C82.1536 15.7904 81.2718 16.1367 80.1416 16.1367C79.4352 16.1367 78.8109 15.9772 78.2686 15.6582C77.7262 15.3392 77.3092 14.8812 77.0176 14.2842C76.7259 13.6872 76.5801 12.9945 76.5801 12.2061C76.5801 10.9801 76.8945 10.0231 77.5234 9.33496C78.1523 8.64681 79.0387 8.30273 80.1826 8.30273C81.2764 8.30273 82.1423 8.65592 82.7803 9.3623C83.4183 10.0641 83.7373 11.012 83.7373 12.2061ZM78.2344 12.2061C78.2344 13.9515 78.8792 14.8242 80.1689 14.8242C81.445 14.8242 82.083 13.9515 82.083 12.2061C82.083 10.4788 81.4404 9.61523 80.1553 9.61523C79.4808 9.61523 78.9909 9.83854 78.6855 10.2852C78.3848 10.7318 78.2344 11.3721 78.2344 12.2061ZM95.4678 16H88.6934V14.7832L91.2705 12.1924C92.0316 11.4131 92.5352 10.8617 92.7812 10.5381C93.0319 10.21 93.2142 9.90234 93.3281 9.61523C93.4421 9.32812 93.499 9.02051 93.499 8.69238C93.499 8.24121 93.3623 7.88574 93.0889 7.62598C92.82 7.36621 92.4463 7.23633 91.9678 7.23633C91.585 7.23633 91.2135 7.30697 90.8535 7.44824C90.498 7.58952 90.0856 7.84473 89.6162 8.21387L88.748 7.1543C89.304 6.6849 89.8441 6.35221 90.3682 6.15625C90.8923 5.96029 91.4505 5.8623 92.043 5.8623C92.9727 5.8623 93.7178 6.10612 94.2783 6.59375C94.8389 7.07682 95.1191 7.72852 95.1191 8.54883C95.1191 9 95.0371 9.42839 94.873 9.83398C94.7135 10.2396 94.4652 10.6589 94.1279 11.0918C93.7952 11.5202 93.2393 12.1012 92.46 12.835L90.7236 14.5166V14.585H95.4678V16ZM103.466 11.0029C103.466 12.7393 103.186 14.029 102.625 14.8721C102.069 15.7152 101.217 16.1367 100.068 16.1367C98.9564 16.1367 98.1133 15.7015 97.5391 14.8311C96.9648 13.9606 96.6777 12.6846 96.6777 11.0029C96.6777 9.23926 96.9557 7.94043 97.5117 7.10645C98.0723 6.2679 98.9245 5.84863 100.068 5.84863C101.185 5.84863 102.03 6.28613 102.604 7.16113C103.179 8.03613 103.466 9.31673 103.466 11.0029ZM98.3047 11.0029C98.3047 12.3656 98.4437 13.3385 98.7217 13.9219C99.0042 14.5052 99.4531 14.7969 100.068 14.7969C100.684 14.7969 101.132 14.5007 101.415 13.9082C101.702 13.3158 101.846 12.3473 101.846 11.0029C101.846 9.66309 101.702 8.69466 101.415 8.09766C101.132 7.49609 100.684 7.19531 100.068 7.19531C99.4531 7.19531 99.0042 7.48926 98.7217 8.07715C98.4437 8.66504 98.3047 9.6403 98.3047 11.0029ZM111.464 16H104.689V14.7832L107.267 12.1924C108.028 11.4131 108.531 10.8617 108.777 10.5381C109.028 10.21 109.21 9.90234 109.324 9.61523C109.438 9.32812 109.495 9.02051 109.495 8.69238C109.495 8.24121 109.358 7.88574 109.085 7.62598C108.816 7.36621 108.442 7.23633 107.964 7.23633C107.581 7.23633 107.21 7.30697 106.85 7.44824C106.494 7.58952 106.082 7.84473 105.612 8.21387L104.744 7.1543C105.3 6.6849 105.84 6.35221 106.364 6.15625C106.888 5.96029 107.447 5.8623 108.039 5.8623C108.969 5.8623 109.714 6.10612 110.274 6.59375C110.835 7.07682 111.115 7.72852 111.115 8.54883C111.115 9 111.033 9.42839 110.869 9.83398C110.71 10.2396 110.461 10.6589 110.124 11.0918C109.791 11.5202 109.235 12.1012 108.456 12.835L106.72 14.5166V14.585H111.464V16ZM119.462 11.0029C119.462 12.7393 119.182 14.029 118.621 14.8721C118.065 15.7152 117.213 16.1367 116.064 16.1367C114.952 16.1367 114.109 15.7015 113.535 14.8311C112.961 13.9606 112.674 12.6846 112.674 11.0029C112.674 9.23926 112.952 7.94043 113.508 7.10645C114.068 6.2679 114.921 5.84863 116.064 5.84863C117.181 5.84863 118.026 6.28613 118.601 7.16113C119.175 8.03613 119.462 9.31673 119.462 11.0029ZM114.301 11.0029C114.301 12.3656 114.44 13.3385 114.718 13.9219C115 14.5052 115.449 14.7969 116.064 14.7969C116.68 14.7969 117.129 14.5007 117.411 13.9082C117.698 13.3158 117.842 12.3473 117.842 11.0029C117.842 9.66309 117.698 8.69466 117.411 8.09766C117.129 7.49609 116.68 7.19531 116.064 7.19531C115.449 7.19531 115 7.48926 114.718 8.07715C114.44 8.66504 114.301 9.6403 114.301 11.0029Z" fill="white"/>
<path d="M17.6562 1.5625H16.7188V0H15.1562V1.5625H4.84375V0H3.28125V1.5625H2.34375C1.05141 1.5625 0 2.61391 0 3.90625V17.6562C0 18.9486 1.05141 20 2.34375 20H17.6562C18.9486 20 20 18.9486 20 17.6562V3.90625C20 2.61391 18.9486 1.5625 17.6562 1.5625ZM18.4375 17.6562C18.4375 18.087 18.087 18.4375 17.6562 18.4375H2.34375C1.91297 18.4375 1.5625 18.087 1.5625 17.6562V7.34375H18.4375V17.6562ZM18.4375 5.78125H1.5625V3.90625C1.5625 3.47547 1.91297 3.125 2.34375 3.125H3.28125V4.6875H4.84375V3.125H15.1562V4.6875H16.7188V3.125H17.6562C18.087 3.125 18.4375 3.47547 18.4375 3.90625V5.78125Z" fill="white"/>
<path d="M4.53125 8.98438H2.96875V10.5469H4.53125V8.98438Z" fill="white"/>
<path d="M7.65625 8.98438H6.09375V10.5469H7.65625V8.98438Z" fill="white"/>
<path d="M10.7812 8.98438H9.21875V10.5469H10.7812V8.98438Z" fill="white"/>
<path d="M13.9062 8.98438H12.3438V10.5469H13.9062V8.98438Z" fill="white"/>
<path d="M17.0312 8.98438H15.4688V10.5469H17.0312V8.98438Z" fill="white"/>
<path d="M4.53125 12.1094H2.96875V13.6719H4.53125V12.1094Z" fill="white"/>
<path d="M7.65625 12.1094H6.09375V13.6719H7.65625V12.1094Z" fill="white"/>
<path d="M10.7812 12.1094H9.21875V13.6719H10.7812V12.1094Z" fill="white"/>
<path d="M13.9062 12.1094H12.3438V13.6719H13.9062V12.1094Z" fill="white"/>
<path d="M4.53125 15.2344H2.96875V16.7969H4.53125V15.2344Z" fill="white"/>
<path d="M7.65625 15.2344H6.09375V16.7969H7.65625V15.2344Z" fill="white"/>
<path d="M10.7812 15.2344H9.21875V16.7969H10.7812V15.2344Z" fill="white"/>
<path d="M13.9062 15.2344H12.3438V16.7969H13.9062V15.2344Z" fill="white"/>
<path d="M17.0312 12.1094H15.4688V13.6719H17.0312V12.1094Z" fill="white"/>
</svg>
