<svg width="13" height="9" viewBox="0 0 13 9" fill="none" xmlns="http://www.w3.org/2000/svg">
<path d="M6.73795 8.64776C6.76639 8.62766 6.78939 8.60109 6.81089 8.57369L12.8668 0.647423L12.878 0.632862C12.9376 0.555513 13 0.471883 13 0.374234C13 0.168405 12.8183 -7.69728e-09 12.5963 -1.71051e-08L0.403727 -5.33678e-07C0.181677 -5.43086e-07 -7.59464e-09 0.168405 -1.6877e-08 0.374233C-2.12787e-08 0.471838 0.0624008 0.555495 0.121976 0.632808L0.133237 0.647422L6.18913 8.57369C6.21064 8.60109 6.23362 8.62768 6.26209 8.64774C6.32969 8.69537 6.41413 8.72339 6.50405 8.72339C6.58731 8.72339 6.67056 8.69538 6.73795 8.64776Z" fill="#F1931F"/>
</svg>
