<svg width="99" height="39" viewBox="0 0 99 39" fill="none" xmlns="http://www.w3.org/2000/svg">
<rect width="99" height="39" rx="5" fill="#03A9F4"/>
<path d="M49.47 16.754H46.292V25H44.374V16.754H41.196V15.06H49.47V16.754ZM58.9247 17.664H60.7027L57.6367 25H56.0687L54.8367 21.85L53.6327 25H52.0507L48.9987 17.664H50.7627L52.9467 23.208L53.8007 20.814L52.5267 17.678H54.0807L54.8367 19.918L55.6067 17.678H57.1607L55.8867 20.814L56.7547 23.208L58.9247 17.664ZM64.7248 25.14C64.1368 25.14 63.6048 25.042 63.1288 24.846C62.6528 24.6407 62.2468 24.3653 61.9108 24.02C61.5748 23.6653 61.3134 23.264 61.1268 22.816C60.9494 22.3587 60.8608 21.878 60.8608 21.374C60.8608 20.674 61.0148 20.0347 61.3228 19.456C61.6401 18.8773 62.0881 18.4153 62.6668 18.07C63.2548 17.7153 63.9454 17.538 64.7388 17.538C65.5414 17.538 66.2274 17.7153 66.7968 18.07C67.3661 18.4153 67.8001 18.8773 68.0988 19.456C68.4068 20.0253 68.5608 20.6413 68.5608 21.304C68.5608 21.416 68.5561 21.5327 68.5468 21.654C68.5374 21.766 68.5281 21.8593 68.5188 21.934H62.8488C62.8861 22.3073 62.9934 22.634 63.1708 22.914C63.3574 23.194 63.5908 23.4087 63.8708 23.558C64.1601 23.698 64.4681 23.768 64.7948 23.768C65.1681 23.768 65.5181 23.6793 65.8448 23.502C66.1808 23.3153 66.4094 23.0727 66.5308 22.774L68.1408 23.222C67.9634 23.5953 67.7068 23.9267 67.3708 24.216C67.0441 24.5053 66.6568 24.734 66.2088 24.902C65.7608 25.0607 65.2661 25.14 64.7248 25.14ZM62.8068 20.744H66.6428C66.6054 20.3707 66.4981 20.0487 66.3208 19.778C66.1528 19.498 65.9288 19.2833 65.6488 19.134C65.3688 18.9753 65.0561 18.896 64.7108 18.896C64.3748 18.896 64.0668 18.9753 63.7868 19.134C63.5161 19.2833 63.2921 19.498 63.1148 19.778C62.9468 20.0487 62.8441 20.3707 62.8068 20.744ZM73.1056 25.14C72.5176 25.14 71.9856 25.042 71.5096 24.846C71.0336 24.6407 70.6276 24.3653 70.2916 24.02C69.9556 23.6653 69.6943 23.264 69.5076 22.816C69.3303 22.3587 69.2416 21.878 69.2416 21.374C69.2416 20.674 69.3956 20.0347 69.7036 19.456C70.0209 18.8773 70.4689 18.4153 71.0476 18.07C71.6356 17.7153 72.3263 17.538 73.1196 17.538C73.9223 17.538 74.6083 17.7153 75.1776 18.07C75.7469 18.4153 76.1809 18.8773 76.4796 19.456C76.7876 20.0253 76.9416 20.6413 76.9416 21.304C76.9416 21.416 76.9369 21.5327 76.9276 21.654C76.9183 21.766 76.9089 21.8593 76.8996 21.934H71.2296C71.2669 22.3073 71.3743 22.634 71.5516 22.914C71.7383 23.194 71.9716 23.4087 72.2516 23.558C72.5409 23.698 72.8489 23.768 73.1756 23.768C73.5489 23.768 73.8989 23.6793 74.2256 23.502C74.5616 23.3153 74.7903 23.0727 74.9116 22.774L76.5216 23.222C76.3443 23.5953 76.0876 23.9267 75.7516 24.216C75.4249 24.5053 75.0376 24.734 74.5896 24.902C74.1416 25.0607 73.6469 25.14 73.1056 25.14ZM71.1876 20.744H75.0236C74.9863 20.3707 74.8789 20.0487 74.7016 19.778C74.5336 19.498 74.3096 19.2833 74.0296 19.134C73.7496 18.9753 73.4369 18.896 73.0916 18.896C72.7556 18.896 72.4476 18.9753 72.1676 19.134C71.8969 19.2833 71.6729 19.498 71.4956 19.778C71.3276 20.0487 71.2249 20.3707 71.1876 20.744ZM82.4121 24.622C82.2534 24.6873 82.0621 24.762 81.8381 24.846C81.6141 24.93 81.3714 24.9953 81.1101 25.042C80.8581 25.098 80.6014 25.126 80.3401 25.126C79.9948 25.126 79.6774 25.0653 79.3881 24.944C79.0988 24.8227 78.8654 24.6313 78.6881 24.37C78.5201 24.0993 78.4361 23.7493 78.4361 23.32V19.106H77.4701V17.664H78.4361V15.284H80.3121V17.664H81.8521V19.106H80.3121V22.69C80.3214 22.942 80.3914 23.124 80.5221 23.236C80.6528 23.348 80.8161 23.404 81.0121 23.404C81.2081 23.404 81.3994 23.3713 81.5861 23.306C81.7728 23.2407 81.9221 23.1847 82.0341 23.138L82.4121 24.622Z" fill="white"/>
<g clip-path="url(#clip0)">
<path d="M31 14.2289C30.3678 14.5063 29.6942 14.6901 28.9919 14.7793C29.7144 14.3479 30.2658 13.6701 30.5251 12.853C29.8514 13.2546 29.1077 13.5383 28.3151 13.6966C27.6754 13.0156 26.7638 12.5938 25.7693 12.5938C23.8398 12.5938 22.2864 14.1599 22.2864 16.0798C22.2864 16.3561 22.3098 16.6217 22.3672 16.8746C19.4697 16.7332 16.9059 15.3446 15.1836 13.2291C14.8829 13.7508 14.7066 14.3479 14.7066 14.9908C14.7066 16.1978 15.3281 17.2677 16.2546 17.8871C15.6947 17.8765 15.1454 17.7139 14.68 17.4579C14.68 17.4685 14.68 17.4823 14.68 17.4961C14.68 19.1897 15.8881 20.5965 17.4722 20.9206C17.1886 20.9981 16.8794 21.0353 16.5585 21.0353C16.3354 21.0353 16.1101 21.0226 15.8987 20.9758C16.3503 22.356 17.6316 23.3707 19.1553 23.4036C17.9695 24.3312 16.4639 24.8901 14.8341 24.8901C14.5483 24.8901 14.2741 24.8773 14 24.8422C15.5438 25.8378 17.3734 26.4062 19.3465 26.4062C25.7597 26.4062 29.266 21.0938 29.266 16.4889C29.266 16.3348 29.2607 16.1861 29.2533 16.0384C29.9449 15.5475 30.5261 14.9344 31 14.2289Z" fill="white"/>
</g>
<defs>
<clipPath id="clip0">
<rect x="14" y="11" width="17" height="17" rx="5" fill="white"/>
</clipPath>
</defs>
</svg>
