<svg width="19" height="19" viewBox="0 0 19 19" fill="none" xmlns="http://www.w3.org/2000/svg">
<g clip-path="url(#clip0)">
<path d="M18.9252 17.206L17.6209 13.4099C18.2483 12.1418 18.5801 10.7282 18.5823 9.30591C18.5861 6.85663 17.6384 4.54067 15.9138 2.78481C14.1889 1.02861 11.8904 0.0400919 9.44174 0.00123844C8.15883 -0.0193572 6.91396 0.217029 5.73983 0.70305C4.60736 1.17185 3.59179 1.85091 2.72135 2.72135C1.85088 3.59179 1.17182 4.60736 0.703054 5.73982C0.217033 6.91396 -0.0190932 8.15946 0.00120555 9.44173C0.0399848 11.8904 1.02854 14.1889 2.78474 15.9138C4.53719 17.6351 6.84717 18.5824 9.29119 18.5824C9.29597 18.5824 9.30102 18.5824 9.30581 18.5824C10.7281 18.5802 12.1417 18.2484 13.4099 17.621L17.2059 18.9254C17.3519 18.9755 17.5015 19 17.6495 19C18.0011 19 18.3431 18.8619 18.6024 18.6025C18.9709 18.234 19.0946 17.6989 18.9252 17.206ZM17.8058 17.806C17.7685 17.8433 17.6885 17.9 17.5719 17.86L13.5495 16.4778C13.49 16.4574 13.4281 16.4473 13.3665 16.4473C13.2755 16.4473 13.185 16.4693 13.1031 16.5127C11.9405 17.1277 10.6269 17.4539 9.30403 17.4559C4.86761 17.463 1.1978 13.8596 1.12751 9.42389C1.09214 7.19217 1.94106 5.09471 3.51787 3.5179C5.09468 1.94113 7.1915 1.09236 9.42385 1.12765C13.8595 1.19798 17.4627 4.86597 17.4558 9.30417C17.4537 10.627 17.1275 11.9407 16.5125 13.1032C16.4397 13.2408 16.4272 13.4024 16.4777 13.5496L17.8599 17.572C17.9 17.6885 17.8432 17.7686 17.8058 17.806Z" fill="#F1931F"/>
<path d="M9.1988 4.73779C7.6536 4.73779 6.39648 5.99491 6.39648 7.5401C6.39648 7.85115 6.64868 8.10335 6.95973 8.10335C7.27078 8.10335 7.52298 7.85115 7.52298 7.5401C7.52298 6.61608 8.27478 5.86428 9.1988 5.86428C10.1228 5.86428 10.8746 6.61608 10.8746 7.5401C10.8746 8.46412 10.1228 9.21592 9.1988 9.21592C8.88775 9.21592 8.63555 9.46812 8.63555 9.77917V12.0764C8.63555 12.3875 8.88775 12.6397 9.1988 12.6397C9.50985 12.6397 9.76205 12.3875 9.76205 12.0764V10.2855C11.0382 10.0241 12.0011 8.89244 12.0011 7.5401C12.0011 5.99491 10.744 4.73779 9.1988 4.73779Z" fill="#F1931F"/>
<path d="M9.19947 13.4612C8.90485 13.4612 8.6226 13.7202 8.63622 14.0244C8.64987 14.3296 8.8837 14.5877 9.19947 14.5877C9.49408 14.5877 9.77634 14.3286 9.76272 14.0244C9.74906 13.7192 9.51523 13.4612 9.19947 13.4612Z" fill="#F1931F"/>
</g>
<defs>
<clipPath id="clip0">
<rect width="19" height="19" fill="white"/>
</clipPath>
</defs>
</svg>
