<svg width="18" height="18" viewBox="0 0 18 18" fill="none" xmlns="http://www.w3.org/2000/svg">
<path d="M17.395 15.36C16.605 14.285 12.61 14.73 12 13.5C10.79 11.06 11.285 11.515 12.07 10.9101C12.81 10.3451 12.775 8.85006 13.23 8.32007C13.69 7.78007 13.9 6.24008 13.73 5.65508C13.5 4.88509 13.15 5.30509 13.095 4.72009C12.98 3.4651 13.295 2.4351 12.59 1.82511C11.91 1.23511 11.055 0.0201246 9.66499 0.0001247C9.17999 -0.00487527 8.63 0.140124 8 0.500121C5 0.180123 5.02 3.4651 4.905 4.72009C4.85 5.30009 4.5 4.88009 4.27 5.65508C4.095 6.23508 4.31 7.78007 4.77 8.32007C5.225 8.85006 5.18999 10.3451 5.92999 10.9101C6.71999 11.515 7.215 11.06 6 13.5C5.39 14.73 1.39 14.28 0.604996 15.36C-4.29153e-06 16.18 0 18 0 18H9H18C18 18 18 16.18 17.395 15.36Z" fill="#C4C4C4"/>
</svg>
