<svg width="30" height="22" viewBox="0 0 30 22" fill="none" xmlns="http://www.w3.org/2000/svg">
<path d="M30 2.84527V11.9266C30 11.9266 28.0564 12.3095 27.656 12.3599C27.2568 12.4101 26.0025 12.8151 25.0935 11.9414C23.6916 10.5978 18.7108 5.64442 18.7108 5.64442C18.7108 5.64442 17.852 4.80172 16.4731 5.53002C15.2073 6.19718 13.3309 7.17492 12.5471 7.55566C11.0655 8.34424 9.83758 7.09308 9.83758 6.14004C9.83758 5.40079 10.2989 4.89905 10.9583 4.53006C12.7454 3.4467 16.512 1.33244 18.0809 0.498886C19.0344 -0.00829533 19.7215 -0.0517559 21.0307 1.05116C22.6431 2.40721 24.078 3.6433 24.078 3.6433C24.078 3.6433 24.5461 4.0339 25.2925 3.87658C27.1253 3.48907 30 2.84527 30 2.84527ZM10.175 18.2327C10.4162 17.613 10.3356 16.9198 9.87311 16.4443C9.45757 16.019 8.85088 15.9069 8.27239 16.0394C8.43419 15.4657 8.34485 14.855 7.92707 14.424C7.51026 13.9997 6.90472 13.8854 6.32629 14.0192C6.48688 13.4463 6.39778 12.8356 5.97976 12.4059C5.32519 11.7345 4.19297 11.7633 3.44918 12.4723C2.70932 13.1823 2.23537 14.4685 2.89569 15.2257C3.55493 15.9789 4.3124 15.5206 4.88986 15.389C4.72921 15.9619 4.24787 16.4948 4.84064 17.2448C5.43287 17.995 6.25729 17.5398 6.83535 17.4095C6.67416 17.9802 6.21383 18.5666 6.78384 19.2619C7.35899 19.9593 8.30102 19.5877 8.92321 19.3945C8.68309 20.0118 8.16913 20.6773 8.82945 21.423C9.48874 22.1741 11.0123 21.8266 11.7566 21.1166C12.4988 20.4066 12.57 19.2814 11.9172 18.6079C11.4665 18.1458 10.7946 18.0383 10.175 18.2327ZM23.7545 13.5081C18.3746 8.12809 20.9051 10.6596 18.0099 7.75819C18.0099 7.75819 17.1397 6.89194 15.9929 7.39513C15.1879 7.7479 14.1514 8.22869 13.3716 8.59574C12.5146 9.04512 11.8978 9.18421 11.6083 9.18228C9.95156 9.17144 8.60743 7.83984 8.60743 6.18477C8.60743 5.11109 9.17744 4.17633 10.0276 3.64572C11.223 2.81846 13.9747 1.35484 13.9747 1.35484C13.9747 1.35484 13.1365 0.292599 11.3001 0.292599C9.46429 0.292599 5.62875 2.80532 5.62875 2.80532C5.62875 2.80532 4.54066 3.50226 2.98958 2.87451L0 1.83345V12.2251C0 12.2251 0.853655 12.4721 1.62069 12.7854C1.79393 12.2914 2.07346 11.8352 2.46121 11.4584C3.73373 10.2463 5.84296 10.2337 7.00072 11.4259C7.34949 11.7883 7.59288 12.2206 7.71709 12.6985C8.1836 12.8425 8.60615 13.0975 8.94573 13.4474C9.29553 13.8074 9.53801 14.2421 9.66325 14.7176C10.1292 14.8617 10.5512 15.1177 10.8919 15.4678C11.2756 15.8635 11.5312 16.3415 11.6506 16.8593C12.1377 17.0012 12.5778 17.2652 12.9324 17.6276C13.6281 18.3423 13.8751 19.3119 13.7255 20.2472C13.7267 20.2472 13.729 20.2472 13.7301 20.2493C13.7415 20.2642 14.1612 20.7321 14.4229 20.996C14.9358 21.5095 15.7734 21.5095 16.2879 20.996C16.799 20.4828 16.8013 19.6469 16.2879 19.131C16.2695 19.1127 14.4374 17.1963 14.5848 17.0477C14.7312 16.9002 17.0654 19.329 17.1089 19.3734C17.6211 19.8858 18.4581 19.8858 18.9727 19.3734C19.4861 18.8602 19.485 18.0243 18.9727 17.5096C18.9475 17.4857 18.8424 17.385 18.8035 17.3449C18.8035 17.3449 16.4892 15.2833 16.6653 15.1071C16.8436 14.9299 19.7183 17.6126 19.723 17.6126C20.2397 18.0779 21.0357 18.0745 21.5328 17.5771C22.0165 17.0935 22.0269 16.3284 21.5981 15.8129C21.589 15.7855 19.4072 13.5055 19.5775 13.3339C19.7503 13.1601 21.9091 15.383 21.9136 15.3876C22.4247 15.8999 23.2629 15.8999 23.7775 15.3876C24.2897 14.8753 24.2897 14.0384 23.7775 13.5215C23.7705 13.5171 23.7614 13.5125 23.7545 13.5081Z" fill="#55499E"/>
</svg>
