<svg width="176" height="39" viewBox="0 0 176 39" fill="none" xmlns="http://www.w3.org/2000/svg">
<rect width="176" height="39" rx="5" fill="#F1931F"/>
<path d="M44.036 25V15.06H45.968V25H44.036ZM54.6779 25H52.8019V20.884C52.8019 20.296 52.6992 19.8667 52.4939 19.596C52.2885 19.3253 52.0039 19.19 51.6399 19.19C51.3879 19.19 51.1312 19.2553 50.8699 19.386C50.6179 19.5167 50.3892 19.6987 50.1839 19.932C49.9785 20.156 49.8292 20.4173 49.7359 20.716V25H47.8599V17.664H49.5539V19.022C49.7405 18.7047 49.9785 18.4387 50.2679 18.224C50.5572 18 50.8885 17.832 51.2619 17.72C51.6445 17.5987 52.0459 17.538 52.4659 17.538C52.9232 17.538 53.2965 17.622 53.5859 17.79C53.8845 17.9487 54.1085 18.168 54.2579 18.448C54.4165 18.7187 54.5239 19.0267 54.5799 19.372C54.6452 19.7173 54.6779 20.0673 54.6779 20.422V25ZM58.16 25L55.458 17.664H57.404L59.252 23.292L61.114 17.664H62.892L60.204 25H58.16ZM63.8833 25V17.664H65.7593V25H63.8833ZM63.8833 16.642V14.78H65.7593V16.642H63.8833ZM66.9477 22.83C66.9477 22.354 67.0783 21.9387 67.3397 21.584C67.6103 21.22 67.9837 20.94 68.4597 20.744C68.9357 20.548 69.4817 20.45 70.0977 20.45C70.4057 20.45 70.7183 20.4733 71.0357 20.52C71.353 20.5667 71.6283 20.6413 71.8617 20.744V20.352C71.8617 19.8853 71.7217 19.526 71.4417 19.274C71.171 19.022 70.765 18.896 70.2237 18.896C69.8223 18.896 69.4397 18.966 69.0757 19.106C68.7117 19.246 68.329 19.4513 67.9277 19.722L67.3257 18.49C67.811 18.1727 68.3057 17.9347 68.8097 17.776C69.323 17.6173 69.8597 17.538 70.4197 17.538C71.465 17.538 72.277 17.7993 72.8557 18.322C73.4437 18.8447 73.7377 19.5913 73.7377 20.562V22.9C73.7377 23.096 73.7703 23.236 73.8357 23.32C73.9103 23.404 74.027 23.4553 74.1857 23.474V25C74.0177 25.028 73.8637 25.0513 73.7237 25.07C73.593 25.0887 73.481 25.098 73.3877 25.098C73.0143 25.098 72.7297 25.014 72.5337 24.846C72.347 24.678 72.2303 24.4727 72.1837 24.23L72.1417 23.852C71.8243 24.2627 71.4277 24.58 70.9517 24.804C70.4757 25.028 69.9903 25.14 69.4957 25.14C69.0103 25.14 68.5717 25.042 68.1797 24.846C67.797 24.6407 67.4937 24.3653 67.2697 24.02C67.055 23.6653 66.9477 23.2687 66.9477 22.83ZM71.5117 23.208C71.6143 23.096 71.6983 22.984 71.7637 22.872C71.829 22.76 71.8617 22.6573 71.8617 22.564V21.822C71.6377 21.7287 71.395 21.6587 71.1337 21.612C70.8723 21.556 70.625 21.528 70.3917 21.528C69.9063 21.528 69.505 21.6353 69.1877 21.85C68.8797 22.0553 68.7257 22.3307 68.7257 22.676C68.7257 22.8627 68.777 23.04 68.8797 23.208C68.9823 23.376 69.1317 23.5113 69.3277 23.614C69.5237 23.7167 69.757 23.768 70.0277 23.768C70.3077 23.768 70.583 23.7167 70.8537 23.614C71.1243 23.502 71.3437 23.3667 71.5117 23.208ZM78.35 22.83C78.35 22.354 78.4807 21.9387 78.742 21.584C79.0127 21.22 79.386 20.94 79.862 20.744C80.338 20.548 80.884 20.45 81.5 20.45C81.808 20.45 82.1207 20.4733 82.438 20.52C82.7553 20.5667 83.0307 20.6413 83.264 20.744V20.352C83.264 19.8853 83.124 19.526 82.844 19.274C82.5733 19.022 82.1673 18.896 81.626 18.896C81.2247 18.896 80.842 18.966 80.478 19.106C80.114 19.246 79.7313 19.4513 79.33 19.722L78.728 18.49C79.2133 18.1727 79.708 17.9347 80.212 17.776C80.7253 17.6173 81.262 17.538 81.822 17.538C82.8673 17.538 83.6793 17.7993 84.258 18.322C84.846 18.8447 85.14 19.5913 85.14 20.562V22.9C85.14 23.096 85.1727 23.236 85.238 23.32C85.3127 23.404 85.4293 23.4553 85.588 23.474V25C85.42 25.028 85.266 25.0513 85.126 25.07C84.9953 25.0887 84.8833 25.098 84.79 25.098C84.4167 25.098 84.132 25.014 83.936 24.846C83.7493 24.678 83.6327 24.4727 83.586 24.23L83.544 23.852C83.2267 24.2627 82.83 24.58 82.354 24.804C81.878 25.028 81.3927 25.14 80.898 25.14C80.4127 25.14 79.974 25.042 79.582 24.846C79.1993 24.6407 78.896 24.3653 78.672 24.02C78.4573 23.6653 78.35 23.2687 78.35 22.83ZM82.914 23.208C83.0167 23.096 83.1007 22.984 83.166 22.872C83.2313 22.76 83.264 22.6573 83.264 22.564V21.822C83.04 21.7287 82.7973 21.6587 82.536 21.612C82.2747 21.556 82.0273 21.528 81.794 21.528C81.3087 21.528 80.9073 21.6353 80.59 21.85C80.282 22.0553 80.128 22.3307 80.128 22.676C80.128 22.8627 80.1793 23.04 80.282 23.208C80.3847 23.376 80.534 23.5113 80.73 23.614C80.926 23.7167 81.1593 23.768 81.43 23.768C81.71 23.768 81.9853 23.7167 82.256 23.614C82.5267 23.502 82.746 23.3667 82.914 23.208ZM86.4451 21.332C86.4451 20.6227 86.5851 19.9833 86.8651 19.414C87.1451 18.8353 87.5324 18.378 88.0271 18.042C88.5217 17.706 89.0864 17.538 89.7211 17.538C90.2624 17.538 90.7477 17.6733 91.1771 17.944C91.6157 18.2053 91.9564 18.5413 92.1991 18.952V14.78H94.0751V22.9C94.0751 23.096 94.1077 23.236 94.1731 23.32C94.2384 23.404 94.3504 23.4553 94.5091 23.474V25C94.1824 25.0653 93.9164 25.098 93.7111 25.098C93.3751 25.098 93.0951 25.014 92.8711 24.846C92.6564 24.678 92.5351 24.4587 92.5071 24.188L92.4791 23.726C92.2084 24.1833 91.8397 24.5333 91.3731 24.776C90.9157 25.0187 90.4351 25.14 89.9311 25.14C89.4271 25.14 88.9604 25.042 88.5311 24.846C88.1111 24.65 87.7424 24.3793 87.4251 24.034C87.1171 23.6887 86.8744 23.2873 86.6971 22.83C86.5291 22.3633 86.4451 21.864 86.4451 21.332ZM92.1991 22.312V20.562C92.1057 20.2913 91.9564 20.0487 91.7511 19.834C91.5457 19.6193 91.3171 19.4513 91.0651 19.33C90.8131 19.1993 90.5611 19.134 90.3091 19.134C90.0197 19.134 89.7584 19.1947 89.5251 19.316C89.2917 19.4373 89.0864 19.6007 88.9091 19.806C88.7411 20.0113 88.6104 20.2493 88.5171 20.52C88.4331 20.7907 88.3911 21.0753 88.3911 21.374C88.3911 21.6727 88.4377 21.9573 88.5311 22.228C88.6337 22.4893 88.7784 22.718 88.9651 22.914C89.1517 23.11 89.3664 23.264 89.6091 23.376C89.8611 23.488 90.1317 23.544 90.4211 23.544C90.5984 23.544 90.7757 23.516 90.9531 23.46C91.1397 23.3947 91.3124 23.3107 91.4711 23.208C91.6391 23.096 91.7837 22.9653 91.9051 22.816C92.0357 22.6573 92.1337 22.4893 92.1991 22.312ZM99.2098 22.256V17.664H101.086V21.85C101.086 22.41 101.188 22.8347 101.394 23.124C101.599 23.404 101.902 23.544 102.304 23.544C102.546 23.544 102.784 23.4973 103.018 23.404C103.26 23.3013 103.48 23.152 103.676 22.956C103.881 22.76 104.054 22.5127 104.194 22.214V17.664H106.07V22.9C106.07 23.096 106.102 23.236 106.168 23.32C106.242 23.404 106.359 23.4553 106.518 23.474V25C106.331 25.028 106.172 25.0467 106.042 25.056C105.92 25.0747 105.808 25.084 105.706 25.084C105.37 25.084 105.094 25.0093 104.88 24.86C104.674 24.7013 104.553 24.4867 104.516 24.216L104.474 23.628C104.147 24.1227 103.727 24.5007 103.214 24.762C102.7 25.014 102.136 25.14 101.52 25.14C100.764 25.14 100.19 24.8973 99.7978 24.412C99.4058 23.9173 99.2098 23.1987 99.2098 22.256ZM114.752 25H112.876V20.884C112.876 20.296 112.773 19.8667 112.568 19.596C112.363 19.3253 112.078 19.19 111.714 19.19C111.462 19.19 111.205 19.2553 110.944 19.386C110.692 19.5167 110.463 19.6987 110.258 19.932C110.053 20.156 109.903 20.4173 109.81 20.716V25H107.934V17.664H109.628V19.022C109.815 18.7047 110.053 18.4387 110.342 18.224C110.631 18 110.963 17.832 111.336 17.72C111.719 17.5987 112.12 17.538 112.54 17.538C112.997 17.538 113.371 17.622 113.66 17.79C113.959 17.9487 114.183 18.168 114.332 18.448C114.491 18.7187 114.598 19.0267 114.654 19.372C114.719 19.7173 114.752 20.0673 114.752 20.422V25ZM119.243 22.83C119.243 22.354 119.373 21.9387 119.635 21.584C119.905 21.22 120.279 20.94 120.755 20.744C121.231 20.548 121.777 20.45 122.393 20.45C122.701 20.45 123.013 20.4733 123.331 20.52C123.648 20.5667 123.923 20.6413 124.157 20.744V20.352C124.157 19.8853 124.017 19.526 123.737 19.274C123.466 19.022 123.06 18.896 122.519 18.896C122.117 18.896 121.735 18.966 121.371 19.106C121.007 19.246 120.624 19.4513 120.223 19.722L119.621 18.49C120.106 18.1727 120.601 17.9347 121.105 17.776C121.618 17.6173 122.155 17.538 122.715 17.538C123.76 17.538 124.572 17.7993 125.151 18.322C125.739 18.8447 126.033 19.5913 126.033 20.562V22.9C126.033 23.096 126.065 23.236 126.131 23.32C126.205 23.404 126.322 23.4553 126.481 23.474V25C126.313 25.028 126.159 25.0513 126.019 25.07C125.888 25.0887 125.776 25.098 125.683 25.098C125.309 25.098 125.025 25.014 124.829 24.846C124.642 24.678 124.525 24.4727 124.479 24.23L124.437 23.852C124.119 24.2627 123.723 24.58 123.247 24.804C122.771 25.028 122.285 25.14 121.791 25.14C121.305 25.14 120.867 25.042 120.475 24.846C120.092 24.6407 119.789 24.3653 119.565 24.02C119.35 23.6653 119.243 23.2687 119.243 22.83ZM123.807 23.208C123.909 23.096 123.993 22.984 124.059 22.872C124.124 22.76 124.157 22.6573 124.157 22.564V21.822C123.933 21.7287 123.69 21.6587 123.429 21.612C123.167 21.556 122.92 21.528 122.687 21.528C122.201 21.528 121.8 21.6353 121.483 21.85C121.175 22.0553 121.021 22.3307 121.021 22.676C121.021 22.8627 121.072 23.04 121.175 23.208C121.277 23.376 121.427 23.5113 121.623 23.614C121.819 23.7167 122.052 23.768 122.323 23.768C122.603 23.768 122.878 23.7167 123.149 23.614C123.419 23.502 123.639 23.3667 123.807 23.208ZM139.182 25H137.306V20.884C137.306 20.3053 137.203 19.8807 136.998 19.61C136.802 19.33 136.526 19.19 136.172 19.19C135.808 19.19 135.458 19.3347 135.122 19.624C134.795 19.904 134.562 20.2727 134.422 20.73V25H132.546V20.884C132.546 20.296 132.443 19.8667 132.238 19.596C132.042 19.3253 131.766 19.19 131.412 19.19C131.048 19.19 130.698 19.33 130.362 19.61C130.035 19.89 129.802 20.2587 129.662 20.716V25H127.786V17.664H129.48V19.022C129.76 18.546 130.133 18.182 130.6 17.93C131.066 17.6687 131.603 17.538 132.21 17.538C132.816 17.538 133.288 17.6873 133.624 17.986C133.969 18.2847 134.188 18.6533 134.282 19.092C134.58 18.588 134.958 18.2053 135.416 17.944C135.882 17.6733 136.405 17.538 136.984 17.538C137.441 17.538 137.81 17.622 138.09 17.79C138.379 17.9487 138.603 18.168 138.762 18.448C138.92 18.7187 139.028 19.0267 139.084 19.372C139.149 19.7173 139.182 20.0673 139.182 20.422V25ZM140.815 25V17.664H142.691V25H140.815ZM140.815 16.642V14.78H142.691V16.642H140.815ZM147.799 25.14C147.202 25.14 146.665 25.042 146.189 24.846C145.713 24.6407 145.307 24.3607 144.971 24.006C144.635 23.642 144.374 23.2313 144.187 22.774C144.01 22.3167 143.921 21.836 143.921 21.332C143.921 20.6413 144.075 20.0113 144.383 19.442C144.701 18.8633 145.149 18.4013 145.727 18.056C146.306 17.7107 146.992 17.538 147.785 17.538C148.579 17.538 149.26 17.7107 149.829 18.056C150.399 18.4013 150.823 18.854 151.103 19.414L149.269 19.974C149.111 19.7033 148.901 19.498 148.639 19.358C148.378 19.2087 148.089 19.134 147.771 19.134C147.417 19.134 147.09 19.2273 146.791 19.414C146.502 19.5913 146.273 19.848 146.105 20.184C145.937 20.5107 145.853 20.8933 145.853 21.332C145.853 21.7613 145.937 22.144 146.105 22.48C146.283 22.8067 146.516 23.068 146.805 23.264C147.095 23.4507 147.417 23.544 147.771 23.544C147.995 23.544 148.205 23.5067 148.401 23.432C148.607 23.3573 148.789 23.2547 148.947 23.124C149.106 22.9933 149.223 22.844 149.297 22.676L151.131 23.236C150.963 23.6 150.716 23.9267 150.389 24.216C150.072 24.5053 149.694 24.734 149.255 24.902C148.826 25.0607 148.341 25.14 147.799 25.14ZM155.605 25.14C155.008 25.14 154.471 25.042 153.995 24.846C153.519 24.6407 153.113 24.3607 152.777 24.006C152.451 23.6513 152.199 23.2453 152.021 22.788C151.844 22.3307 151.755 21.85 151.755 21.346C151.755 20.8327 151.844 20.3473 152.021 19.89C152.199 19.4327 152.451 19.0267 152.777 18.672C153.113 18.3173 153.519 18.042 153.995 17.846C154.471 17.6407 155.008 17.538 155.605 17.538C156.203 17.538 156.735 17.6407 157.201 17.846C157.677 18.042 158.083 18.3173 158.419 18.672C158.755 19.0267 159.007 19.4327 159.175 19.89C159.353 20.3473 159.441 20.8327 159.441 21.346C159.441 21.85 159.353 22.3307 159.175 22.788C159.007 23.2453 158.755 23.6513 158.419 24.006C158.093 24.3607 157.691 24.6407 157.215 24.846C156.739 25.042 156.203 25.14 155.605 25.14ZM153.687 21.346C153.687 21.7753 153.771 22.158 153.939 22.494C154.107 22.8207 154.336 23.0773 154.625 23.264C154.915 23.4507 155.241 23.544 155.605 23.544C155.96 23.544 156.282 23.4507 156.571 23.264C156.861 23.068 157.089 22.8067 157.257 22.48C157.435 22.144 157.523 21.7613 157.523 21.332C157.523 20.912 157.435 20.534 157.257 20.198C157.089 19.862 156.861 19.6007 156.571 19.414C156.282 19.2273 155.96 19.134 155.605 19.134C155.241 19.134 154.915 19.232 154.625 19.428C154.336 19.6147 154.107 19.876 153.939 20.212C153.771 20.5387 153.687 20.9167 153.687 21.346Z" fill="white"/>
<path d="M32.5715 13.5101C32.5715 13.2295 32.3625 13 32.1072 13H14.4643C14.2089 13 14 13.2295 14 13.5101V14.918L23.2857 20.0189L32.5715 14.918V13.5101Z" fill="#F9F9F9"/>
<path d="M32.5715 16.4858L23.2857 21.5869L14 16.4858V26.0554C14 26.3359 14.2089 26.5655 14.4643 26.5655H32.1072C32.3625 26.5655 32.5715 26.3359 32.5715 26.0554V16.4858Z" fill="#F9F9F9"/>
</svg>
