<svg width="25" height="25" viewBox="0 0 25 25" fill="none" xmlns="http://www.w3.org/2000/svg">
<path d="M12.0833 0.416656C5.41333 0.416656 0 5.82999 0 12.5C0 19.17 5.41333 24.5833 12.0833 24.5833C18.7533 24.5833 24.1667 19.17 24.1667 12.5C24.1667 5.82999 18.7533 0.416656 12.0833 0.416656ZM13.2917 20.9583H10.875V18.5417H13.2917V20.9583ZM15.7929 11.5937L14.7054 12.7054C14.1013 13.3217 13.6663 13.8775 13.4488 14.7475C13.3521 15.1342 13.2917 15.5692 13.2917 16.125H10.875V15.5208C10.875 14.965 10.9717 14.4333 11.1408 13.9379C11.3825 13.2371 11.7813 12.6087 12.2888 12.1012L13.7871 10.5787C14.3429 10.0471 14.6088 9.24957 14.4517 8.40374C14.2946 7.53374 13.6179 6.79666 12.7721 6.55499C11.4308 6.18041 10.1863 6.94166 9.7875 8.08957C9.6425 8.53666 9.26792 8.87499 8.79667 8.87499H8.43417C7.73333 8.87499 7.25 8.19832 7.44333 7.52166C7.96292 5.74541 9.47333 4.39207 11.3463 4.10207C13.1829 3.81207 14.935 4.76666 16.0225 6.27707C17.4483 8.24666 17.0254 10.3612 15.7929 11.5937Z" fill="#088155"/>
</svg>
