<svg width="24" height="26" viewBox="0 0 24 26" fill="none" xmlns="http://www.w3.org/2000/svg">
<path d="M15.691 1.2375C15.1521 0.7625 14.4288 0.5 13.6772 0.5H3.50897C1.94899 0.5 0.672646 1.625 0.672646 3V23C0.672646 24.375 1.93481 25.5 3.49479 25.5H20.5269C22.0869 25.5 23.3632 24.375 23.3632 23V9.0375C23.3632 8.375 23.0654 7.7375 22.5265 7.275L15.691 1.2375ZM16.2724 18H13.4361V20.5C13.4361 21.1875 12.7979 21.75 12.0179 21.75C11.2379 21.75 10.5998 21.1875 10.5998 20.5V18H7.76345C6.98346 18 6.34529 17.4375 6.34529 16.75C6.34529 16.0625 6.98346 15.5 7.76345 15.5H10.5998V13C10.5998 12.3125 11.2379 11.75 12.0179 11.75C12.7979 11.75 13.4361 12.3125 13.4361 13V15.5H16.2724C17.0524 15.5 17.6906 16.0625 17.6906 16.75C17.6906 17.4375 17.0524 18 16.2724 18ZM13.4361 8V2.375L21.236 9.25H14.8543C14.0743 9.25 13.4361 8.6875 13.4361 8Z" fill="#CC7100"/>
</svg>
