<svg width="25" height="25" viewBox="0 0 25 25" fill="none" xmlns="http://www.w3.org/2000/svg">
<path d="M22.1667 0.416664H2.83335C1.50419 0.416664 0.42877 1.50416 0.42877 2.83333L0.416687 24.5833L5.25002 19.75H22.1667C23.4959 19.75 24.5834 18.6625 24.5834 17.3333V2.83333C24.5834 1.50416 23.4959 0.416664 22.1667 0.416664ZM17.7925 13.3458L14.9167 11.05V13.7083C14.9167 14.3729 14.3729 14.9167 13.7084 14.9167H6.45835C5.79377 14.9167 5.25002 14.3729 5.25002 13.7083V6.45833C5.25002 5.79375 5.79377 5.25 6.45835 5.25H13.7084C14.3729 5.25 14.9167 5.79375 14.9167 6.45833V9.11666L17.7925 6.82083C18.5779 6.1925 19.75 6.74833 19.75 7.76333V12.4033C19.75 13.4183 18.5779 13.9742 17.7925 13.3458Z" fill="#F1931F"/>
</svg>
