<svg width="21" height="20" viewBox="0 0 21 20" fill="none" xmlns="http://www.w3.org/2000/svg">
<path d="M10.3088 0C4.77884 0 0.308838 4.47 0.308838 10C0.308838 15.53 4.77884 20 10.3088 20C15.8388 20 20.3088 15.53 20.3088 10C20.3088 4.47 15.8388 0 10.3088 0ZM14.6088 14.3C14.2188 14.69 13.5888 14.69 13.1988 14.3L10.3088 11.41L7.41884 14.3C7.02884 14.69 6.39884 14.69 6.00884 14.3C5.61884 13.91 5.61884 13.28 6.00884 12.89L8.89884 10L6.00884 7.11C5.61884 6.72 5.61884 6.09 6.00884 5.7C6.39884 5.31 7.02884 5.31 7.41884 5.7L10.3088 8.59L13.1988 5.7C13.5888 5.31 14.2188 5.31 14.6088 5.7C14.9988 6.09 14.9988 6.72 14.6088 7.11L11.7188 10L14.6088 12.89C14.9888 13.27 14.9888 13.91 14.6088 14.3Z" fill="#F1511F"/>
</svg>
