<svg width="14" height="14" viewBox="0 0 14 14" fill="none" xmlns="http://www.w3.org/2000/svg">
<path d="M12.6283 9.54705L10.6487 9.32103C10.1733 9.26648 9.70573 9.43014 9.37061 9.76526L7.93661 11.1993C5.73106 10.077 3.92298 8.2767 2.80072 6.06335L4.24251 4.62155C4.57763 4.28643 4.74129 3.81882 4.68673 3.34341L4.46072 1.37945C4.3672 0.592307 3.70476 0 2.90983 0H1.56156C0.680895 0 -0.0516913 0.73259 0.00286291 1.61326C0.415916 8.26891 5.73885 13.5841 12.3867 13.9971C13.2673 14.0517 13.9999 13.3191 13.9999 12.4384V11.0902C14.0077 10.303 13.4154 9.64057 12.6283 9.54705Z" fill="#646464"/>
</svg>
