<svg width="16" height="4" viewBox="0 0 16 4" fill="none" xmlns="http://www.w3.org/2000/svg">
<path d="M2.50033 0.166504C1.49199 0.166504 0.666992 0.991504 0.666992 1.99984C0.666992 3.00817 1.49199 3.83317 2.50033 3.83317C3.50866 3.83317 4.33366 3.00817 4.33366 1.99984C4.33366 0.991504 3.50866 0.166504 2.50033 0.166504ZM13.5003 0.166504C12.492 0.166504 11.667 0.991504 11.667 1.99984C11.667 3.00817 12.492 3.83317 13.5003 3.83317C14.5087 3.83317 15.3337 3.00817 15.3337 1.99984C15.3337 0.991504 14.5087 0.166504 13.5003 0.166504ZM8.00032 0.166504C6.99199 0.166504 6.16699 0.991504 6.16699 1.99984C6.16699 3.00817 6.99199 3.83317 8.00032 3.83317C9.00866 3.83317 9.83366 3.00817 9.83366 1.99984C9.83366 0.991504 9.00866 0.166504 8.00032 0.166504Z" fill="white"/>
</svg>
