<svg width="15" height="15" viewBox="0 0 15 15" fill="none" xmlns="http://www.w3.org/2000/svg">
<path d="M14.5871 0.423809C14.1483 -0.0149411 13.4396 -0.0149411 13.0008 0.423809L7.49957 5.91381L1.99832 0.412559C1.55957 -0.0261914 0.85082 -0.0261914 0.41207 0.412559C-0.0266797 0.851309 -0.0266797 1.56006 0.41207 1.99881L5.91332 7.50006L0.41207 13.0013C-0.0266797 13.4401 -0.0266797 14.1488 0.41207 14.5876C0.85082 15.0263 1.55957 15.0263 1.99832 14.5876L7.49957 9.08631L13.0008 14.5876C13.4396 15.0263 14.1483 15.0263 14.5871 14.5876C15.0258 14.1488 15.0258 13.4401 14.5871 13.0013L9.08582 7.50006L14.5871 1.99881C15.0146 1.57131 15.0146 0.851309 14.5871 0.423809Z" fill="white"/>
</svg>
