<svg width="148" height="52" viewBox="0 0 148 52" fill="none" xmlns="http://www.w3.org/2000/svg">
<path fill-rule="evenodd" clip-rule="evenodd" d="M147.884 39.0895V39.6022C145.829 39.6908 145.829 40.0023 145.829 41.7451V48.8274C145.829 50.6515 146.228 50.8774 148 50.9957V51.5099H141.719V50.9957C143.49 50.9384 143.795 50.7089 143.795 48.7664V41.7734C143.795 39.9435 143.403 39.7213 141.632 39.6022V39.0895H147.884ZM5.0033 38.4868V48.9218C4.98152 49.4263 5.01563 49.9316 5.10497 50.4286C5.18554 50.6483 5.33941 50.8335 5.54065 50.9529C5.86713 51.1139 6.23045 51.1853 6.59356 51.1598H6.88404V51.5099H0.167004V51.1598H0.508281C0.904702 51.1864 1.30204 51.1226 1.67022 50.9733C1.88638 50.8656 2.05459 50.6812 2.14216 50.4562C2.25528 49.9531 2.29687 49.4365 2.26564 48.9218V42.305C2.28757 41.9365 2.25825 41.5667 2.1785 41.2063C2.11867 41.0474 2.00585 40.914 1.85903 40.8287C1.70617 40.7212 1.52296 40.6652 1.33612 40.6689C0.930272 40.6908 0.532846 40.7932 0.167004 40.9703L0 40.6319L4.69101 38.4868H5.0033ZM17.2901 45.1283C17.3013 46.3373 17.1224 47.5404 16.7599 48.6938C16.5826 49.3001 16.2892 49.8661 15.8958 50.3603C15.5537 50.7778 15.1376 51.1289 14.6685 51.3959C14.2104 51.6476 13.6954 51.7776 13.1727 51.7735C12.5841 51.7811 12.006 51.6165 11.5097 51.3C10.9766 50.9537 10.5256 50.4953 10.1881 49.9566C9.86777 49.4258 9.62565 48.8515 9.46924 48.2515C9.19463 47.2851 9.05768 46.2848 9.06254 45.2801C9.05002 43.9842 9.24621 42.6947 9.64351 41.4612C9.89857 40.5974 10.4071 39.8302 11.1031 39.2587C11.6841 38.7718 12.4147 38.4993 13.1727 38.4868C13.9296 38.4924 14.6611 38.7606 15.2422 39.2456C15.9028 39.772 16.397 40.4781 16.6655 41.2789C17.0949 42.5162 17.3063 43.8187 17.2901 45.1283ZM14.3927 45.1087C14.3927 42.8801 14.3854 41.5767 14.3636 41.2063C14.3702 40.5859 14.2123 39.9748 13.9061 39.4352C13.8111 39.3295 13.6926 39.2475 13.5602 39.1958C13.4278 39.1441 13.2851 39.1241 13.1436 39.1375C13.0276 39.1309 12.9115 39.1473 12.8019 39.1856C12.6922 39.224 12.5911 39.2837 12.5046 39.3611C12.2268 39.6895 12.0615 40.0982 12.0326 40.5273C11.9527 41.0807 11.9116 43.0171 11.9091 46.3367C11.874 47.5501 11.9371 48.7643 12.098 49.9675C12.1391 50.2996 12.2809 50.6111 12.5046 50.86C12.7014 51.018 12.9497 51.0978 13.2017 51.0843C13.3347 51.0944 13.468 51.0723 13.5906 51.02C13.7132 50.9677 13.8214 50.8866 13.9061 50.7837C14.2127 50.2974 14.3716 49.7326 14.3636 49.1578L14.3927 45.1087ZM24.2758 38.4868V48.9218C24.254 49.4263 24.2881 49.9316 24.3775 50.4286C24.458 50.6483 24.6119 50.8335 24.8131 50.9529C25.1396 51.1139 25.5029 51.1853 25.866 51.1598H26.1638V51.5099H19.4395V51.1598H19.7808C20.1772 51.1864 20.5744 51.1226 20.9426 50.9733C21.1604 50.8678 21.3294 50.6827 21.4146 50.4562C21.5278 49.9531 21.5694 49.4365 21.5381 48.9218V42.305C21.557 41.9369 21.5301 41.5678 21.4583 41.2063C21.393 41.0484 21.2783 40.9159 21.1314 40.8287C20.9791 40.7202 20.7956 40.6641 20.6086 40.6689C20.2028 40.6908 19.8053 40.7932 19.4395 40.9703L19.2725 40.6319L23.9708 38.4868H24.2758ZM41.6311 39.0895H45.6686V39.6022C44.2671 39.6022 43.8387 39.7213 43.8677 40.4315C43.8677 40.6319 43.8967 41.4321 43.9185 42.0603L44.3542 48.8274C44.4704 50.539 44.4922 51.0502 46.3657 50.9957V51.5099H40.433V50.9957C41.6602 50.9108 42.4589 50.8236 42.4589 49.9377C42.4589 49.6226 42.4299 48.9988 42.4009 48.6531L41.8853 40.7176L37.1725 51.5099H36.6279L32.0675 40.7176L31.3486 49.2544C31.3268 49.5376 31.2978 49.9377 31.2978 50.1098C31.2978 50.7634 32.0021 50.9957 33.0333 50.9957V51.5099H28.2406V50.9957C28.8724 50.9674 29.8672 50.9108 30.1504 50.539C30.406 49.9032 30.5319 49.2228 30.5208 48.5377L31.1526 40.9732C31.2397 39.7765 31.0363 39.7213 29.4097 39.6022V39.0895H33.4908L37.521 48.5377L41.6311 39.0895ZM51.7248 39.7213V44.8574H54.811C55.8422 44.8574 56.1835 44.8575 56.2924 43.3136H56.8661V47.1681H56.2924C56.2343 45.601 56.0092 45.482 54.6149 45.482H51.7248V49.5659C51.7248 50.7946 51.7829 50.7946 53.0101 50.7946H55.1814C56.4667 50.7946 57.1275 50.6218 57.6649 48.4818H58.2095L57.9481 51.5099H47.6438V51.0219C49.4737 51.0807 49.6771 50.539 49.6771 49.3691V41.26C49.6771 39.8077 49.2413 39.5746 47.6438 39.6022V39.0895H57.4108L57.5196 41.8018H57.0041C56.6991 39.9137 56.2343 39.7213 54.8401 39.7213H51.7248ZM59.6691 51.5099V50.9957C61.5789 50.9108 61.8911 50.738 61.8911 49.1375V41.573C61.8911 40.0887 61.7242 39.8302 59.6691 39.8041V39.287C61.734 39.0679 63.8086 38.9537 65.8851 38.945C67.5117 38.945 73.793 39.2602 73.793 45.1102C73.7855 46.4947 73.3155 47.837 72.4577 48.9238C71.5998 50.0106 70.4033 50.7795 69.0584 51.1083C67.6118 51.3935 66.1395 51.5271 64.6651 51.507H59.6691V51.5099ZM63.9462 39.6008V49.5645C63.9146 49.8914 63.9442 50.2214 64.0334 50.5375C64.2294 50.8759 65.2896 50.9093 65.718 50.9093C70.794 50.9093 71.571 47.1115 71.571 45.1116C71.571 43.8561 71.2587 41.2586 68.797 40.1737C67.3737 39.547 65.5438 39.5775 63.9462 39.6022V39.6008ZM82.1585 39.0881V39.6008C80.1034 39.6893 80.1034 40.0009 80.1034 41.7437V48.826C80.1034 50.6501 80.5028 50.8759 82.2747 50.9943V51.5084H75.9933V50.9943C77.7652 50.9369 78.0774 50.7075 78.0774 48.765V41.772C78.0774 39.942 77.678 39.7198 75.9062 39.6008V39.0881H82.1585ZM89.1515 38.6879H91.2065L95.1133 49.3081C95.5998 50.6799 95.687 50.9093 97.1756 50.9943V51.5084H91.2065V50.9943C92.1795 50.966 93.1454 50.9369 93.1454 50.1352C93.0951 49.5947 92.9603 49.0654 92.7459 48.5667L91.86 46.1704H87.7499L87.0964 47.826C86.7996 48.4856 86.6155 49.1904 86.5518 49.9109C86.5518 50.7953 87.4958 50.8781 88.5197 51.0001V51.5142H83.6108V51.0001C85.0704 50.7133 85.2374 50.226 85.8982 48.6038L89.4347 39.5267L89.1515 38.6879ZM89.8631 40.69L88.0622 45.3374H91.5768L89.8631 40.69ZM98.6569 41.8577L98.9111 38.6626H99.3105C99.4077 38.8303 99.5586 38.9602 99.7389 39.0314C99.9233 39.0812 100.115 39.1004 100.305 39.0881H108.642C109.419 39.0881 109.557 39.0031 109.702 38.6626H110.101L110.326 41.8577H109.869C109.47 40.0582 109.215 39.8026 107.901 39.8026H105.534V49.1934C105.534 50.8222 105.73 50.8759 107.872 50.9943V51.5084H101.133V50.9943C103.275 50.9093 103.479 50.8222 103.479 49.3081V39.8026H100.908C99.797 39.8026 99.7099 39.8592 99.1362 41.8577H98.6569ZM112.578 45.1407C112.578 40.7459 116.259 38.6052 119.433 38.6052C122.715 38.6052 126.222 40.7481 126.222 45.1407C126.222 49.9334 122.541 51.8483 119.404 51.8483C116.288 51.8497 112.578 49.9377 112.578 45.1421V45.1407ZM124 45.1711C124 40.7735 121.8 39.0881 119.345 39.0881C116.404 39.0881 114.8 41.9143 114.8 44.9134C114.8 48.0526 115.577 49.3081 116.375 50.1084C116.764 50.5103 117.23 50.829 117.746 51.0448C118.261 51.2607 118.816 51.3692 119.374 51.3639C121.538 51.3654 124 49.7366 124 45.1726V45.1711ZM132.387 46.1152V48.969C132.387 50.6516 132.562 50.9957 133.789 50.9957H134.617V51.5099H128.306V50.9957H128.764C130.165 50.9957 130.332 50.4228 130.332 49.3386V41.26C130.369 40.8927 130.291 40.523 130.107 40.2027C129.875 39.8912 129.701 39.8912 128.277 39.8041V39.287C129.945 39.0874 131.623 38.9733 133.302 38.945C135.815 38.945 138.836 39.5172 138.836 42.5149C138.836 44.8546 137.042 45.4791 136.127 45.7957C136.672 46.2793 136.846 46.4492 137.87 48.6502C138.785 50.6189 139.33 51.019 140.383 51.1918V51.7089C138.415 51.6224 137.216 51.1642 136.011 49.2798C135.699 48.7947 134.471 46.5385 134.217 46.113H132.387V46.1152ZM132.387 39.5746V45.6018H133.673C135.183 45.6018 136.701 44.9156 136.701 42.5737C136.729 42.1653 136.669 41.7557 136.525 41.3724C136.381 40.9892 136.157 40.6413 135.867 40.3522C135.577 40.0631 135.229 39.8395 134.845 39.6966C134.462 39.5537 134.052 39.4948 133.644 39.5238C133.157 39.5201 132.671 39.547 132.387 39.5775V39.5746Z" fill="#088155"/>
<path fill-rule="evenodd" clip-rule="evenodd" d="M85.3383 26.5791C83.3515 26.5791 78.2052 26.5871 74.3805 28.2551H74.2454C78.3628 26.5566 83.5418 26.2669 85.3187 26.2669H86.4385C86.7188 26.2124 87.0078 26.1355 87.2837 26.044C87.9467 25.8276 88.5117 25.4681 88.9162 24.9126C89.3635 24.3055 89.516 23.5285 89.516 22.6607C89.516 22.6607 89.5232 10.7959 89.516 4.04838V3.41661L85.3195 3.41153C84.7313 3.41153 83.8584 3.4551 82.82 3.58799L83.0633 3.87119C84.0429 5.05339 84.7843 6.45126 85.2672 8.0757C85.7711 9.70231 86.0311 11.4117 86.0311 13.2061C86.0311 15.3882 85.7138 17.3096 85.1074 18.9929C84.4945 20.6754 83.666 22.0413 82.6334 23.1182C81.5594 24.2373 80.2951 25.0789 78.8181 25.6482C77.8864 26.0062 76.8741 26.2545 75.7907 26.3896C77.6497 25.8929 79.1441 24.6621 80.2406 22.7559L80.5435 22.1989C81.7562 19.7997 82.3349 16.7868 82.3378 13.2061C82.3378 9.4329 81.7351 6.34234 80.4454 4.00626C78.4913 4.45503 76.3324 5.2146 74.4727 6.47595C77.0412 8.29572 78.9764 11.0813 78.9764 15.3301C78.9764 18.1738 78.4042 20.5694 77.4282 22.098C76.5691 23.3738 75.3666 24.0898 73.8351 24.1051C72.2855 24.0898 71.0045 23.278 70.144 21.9949C69.1579 20.467 68.6532 18.1738 68.6532 15.3301C68.6532 11.0813 70.5826 8.29572 73.154 6.47595C71.2965 5.2146 69.1339 4.45503 67.1813 4.00553C65.8909 6.34234 65.2889 9.43653 65.2889 13.2061C65.2889 16.7868 65.8604 19.8026 67.06 22.1989L67.3606 22.7559C68.4593 24.6679 69.9632 25.9009 71.8324 26.3983C70.5826 26.2466 69.4433 25.9466 68.4107 25.5088C66.8458 24.8451 65.6026 23.9381 64.6542 22.8132C63.6376 21.6151 62.8686 20.2107 62.3566 18.5826C61.8512 16.9291 61.5971 15.1442 61.5971 13.2061C61.5971 11.3057 61.841 9.57959 62.329 8.01179C62.8265 6.45489 63.5947 5.0563 64.6353 3.79495L64.8125 3.58799C63.7726 3.4551 62.8969 3.41153 62.3072 3.41153C58.102 3.41153 58.1115 3.41661 58.1115 3.41661V4.04838C58.102 10.7959 58.1115 22.6607 58.1115 22.6607C58.1115 23.5285 58.2618 24.3055 58.7105 24.9126C59.1143 25.4681 59.6785 25.8276 60.3422 26.044C60.6189 26.1355 60.9072 26.2124 61.1889 26.2669H62.3072C64.0871 26.2669 69.2668 26.5566 73.3827 28.2551H73.244C69.4208 26.5871 64.2744 26.5791 62.3072 26.5791H58.0294H50.8316L51.1257 26.4201C51.6115 26.3606 52.2578 26.2466 52.7974 26.044C53.4575 25.8276 54.0297 25.4681 54.4305 24.9126C54.8807 24.3026 55.0311 23.4987 55.034 22.6607C55.034 22.6607 55.0398 3.76227 55.0354 0H55.9366C57.4949 1.84228 60.4119 2.88942 62.3072 3.10218C62.9078 3.10218 63.891 3.13704 65.0957 3.27719C65.9918 2.33608 67.097 1.56779 68.4252 0.975241C69.4701 0.509769 70.6269 0.19897 71.905 0.0421176C70.0954 0.520661 68.6125 1.69415 67.4761 3.50303C69.4665 4.05419 71.7939 4.78181 73.8141 6.04243C75.8343 4.78181 78.1595 4.05491 80.2298 3.63882C79.0265 1.68471 77.5473 0.50759 75.7449 0.034856C77.0985 0.190256 78.2836 0.511947 79.3075 0.995574C80.566 1.58232 81.6392 2.34697 82.5324 3.27719C83.7321 3.13704 84.7196 3.10218 85.3195 3.10218C87.2147 2.88942 90.1318 1.84228 91.6872 0H92.5906C92.5833 3.76227 92.5906 22.6607 92.5906 22.6607C92.5906 23.4987 92.7423 24.3026 93.1926 24.9126C93.5963 25.4681 94.1656 25.8276 94.8257 26.044C95.3638 26.2466 96.0115 26.3606 96.4995 26.4201L96.7965 26.4506L85.3383 26.5791ZM69.8325 15.3301C69.8325 18.1331 70.1665 20.3624 70.8833 21.8518L70.9159 21.9172C71.5659 23.2163 72.5084 23.9308 73.7937 23.9432C75.0979 23.9308 76.055 23.2163 76.7057 21.9172C77.4297 20.4307 77.7971 18.1331 77.7971 15.3301C77.7971 11.4008 76.1044 8.73941 73.8141 6.95595C71.523 8.73941 69.8325 11.4008 69.8325 15.3301Z" fill="#088155"/>
</svg>
