<svg width="16" height="4" viewBox="0 0 16 4" fill="none" xmlns="http://www.w3.org/2000/svg">
<path d="M2.49999 0.166687C1.49166 0.166687 0.666656 0.991687 0.666656 2.00002C0.666656 3.00835 1.49166 3.83335 2.49999 3.83335C3.50832 3.83335 4.33332 3.00835 4.33332 2.00002C4.33332 0.991687 3.50832 0.166687 2.49999 0.166687ZM13.5 0.166687C12.4917 0.166687 11.6667 0.991687 11.6667 2.00002C11.6667 3.00835 12.4917 3.83335 13.5 3.83335C14.5083 3.83335 15.3333 3.00835 15.3333 2.00002C15.3333 0.991687 14.5083 0.166687 13.5 0.166687ZM7.99999 0.166687C6.99166 0.166687 6.16666 0.991687 6.16666 2.00002C6.16666 3.00835 6.99166 3.83335 7.99999 3.83335C9.00832 3.83335 9.83332 3.00835 9.83332 2.00002C9.83332 0.991687 9.00832 0.166687 7.99999 0.166687Z" fill="#646464"/>
</svg>
