<svg width="22" height="16" viewBox="0 0 22 16" fill="none" xmlns="http://www.w3.org/2000/svg">
<path d="M16.0417 0.125C14.2542 0.125 12.3292 0.491667 11 1.5C9.67082 0.491667 7.74582 0.125 5.95832 0.125C4.62916 0.125 3.21749 0.326667 2.03499 0.849167C1.36582 1.15167 0.916656 1.8025 0.916656 2.545V12.885C0.916656 14.0767 2.03499 14.9567 3.18999 14.6633C4.08832 14.4342 5.04166 14.3333 5.95832 14.3333C7.38832 14.3333 8.90999 14.5717 10.1383 15.1767C10.6883 15.4517 11.3117 15.4517 11.8525 15.1767C13.0808 14.5625 14.6025 14.3333 16.0325 14.3333C16.9492 14.3333 17.9025 14.4342 18.8008 14.6633C19.9558 14.9658 21.0742 14.0858 21.0742 12.885V2.545C21.0742 1.8025 20.625 1.15167 19.9558 0.849167C18.7825 0.326667 17.3708 0.125 16.0417 0.125ZM19.25 11.7942C19.25 12.3717 18.7183 12.7933 18.15 12.6925C17.4625 12.5642 16.7475 12.5092 16.0417 12.5092C14.4833 12.5092 12.2375 13.105 11 13.8842V3.33333C12.2375 2.55417 14.4833 1.95833 16.0417 1.95833C16.885 1.95833 17.7192 2.04083 18.5167 2.215C18.9383 2.30667 19.25 2.6825 19.25 3.11333V11.7942Z" fill="#646464"/>
</svg>
