<svg width="14" height="19" viewBox="0 0 14 19" fill="none" xmlns="http://www.w3.org/2000/svg">
<path d="M12 6.66665H11.1667V4.99998C11.1667 2.69998 9.29999 0.833313 6.99999 0.833313C4.69999 0.833313 2.83333 2.69998 2.83333 4.99998V6.66665H1.99999C1.08333 6.66665 0.333328 7.41665 0.333328 8.33331V16.6666C0.333328 17.5833 1.08333 18.3333 1.99999 18.3333H12C12.9167 18.3333 13.6667 17.5833 13.6667 16.6666V8.33331C13.6667 7.41665 12.9167 6.66665 12 6.66665ZM6.99999 14.1666C6.08333 14.1666 5.33333 13.4166 5.33333 12.5C5.33333 11.5833 6.08333 10.8333 6.99999 10.8333C7.91666 10.8333 8.66666 11.5833 8.66666 12.5C8.66666 13.4166 7.91666 14.1666 6.99999 14.1666ZM4.49999 6.66665V4.99998C4.49999 3.61665 5.61666 2.49998 6.99999 2.49998C8.38333 2.49998 9.49999 3.61665 9.49999 4.99998V6.66665H4.49999Z" fill="#3D3D3D"/>
</svg>
