<svg width="160" height="15" viewBox="0 0 160 15" fill="none" xmlns="http://www.w3.org/2000/svg">
<path fill-rule="evenodd" clip-rule="evenodd" d="M159.726 1.21955V1.77327C157.506 1.86896 157.506 2.20547 157.506 4.08782V11.7372C157.506 13.7074 157.937 13.9513 159.851 14.0792V14.6345H153.067V14.0792C154.98 14.0172 155.31 13.7694 155.31 11.6714V4.11841C155.31 2.14194 154.886 1.9019 152.973 1.77327V1.21955H159.726ZM5.40394 0.568604V11.8392C5.38041 12.3841 5.41725 12.9299 5.51375 13.4667C5.60077 13.7039 5.76696 13.9039 5.98432 14.0329C6.33694 14.2068 6.72935 14.2839 7.12154 14.2564H7.43528V14.6345H0.180377V14.2564H0.548982C0.977146 14.2851 1.4063 14.2162 1.80396 14.0549C2.03743 13.9386 2.21911 13.7395 2.31369 13.4964C2.43587 12.953 2.48079 12.3951 2.44706 11.8392V4.69252C2.47075 4.29452 2.43907 3.89515 2.35294 3.50586C2.28832 3.33421 2.16647 3.19013 2.00789 3.098C1.84279 2.98189 1.64491 2.92147 1.44311 2.92547C1.00476 2.94907 0.575514 3.0597 0.180377 3.25094L0 2.88545L5.06664 0.568604H5.40394ZM18.6746 7.74194C18.6867 9.04767 18.4934 10.3472 18.1019 11.5929C17.9105 12.2477 17.5935 12.8591 17.1686 13.3929C16.7991 13.8438 16.3498 14.223 15.8431 14.5113C15.3483 14.7832 14.792 14.9237 14.2275 14.9192C13.5917 14.9274 12.9674 14.7496 12.4314 14.4078C11.8556 14.0338 11.3685 13.5386 11.004 12.9568C10.6579 12.3835 10.3964 11.7632 10.2275 11.1152C9.93089 10.0714 9.78298 8.99098 9.78822 7.90585C9.7747 6.50618 9.9866 5.11344 10.4157 3.78111C10.6912 2.84823 11.2404 2.01955 11.9922 1.40232C12.6197 0.876375 13.4088 0.58204 14.2275 0.568604C15.045 0.574666 15.8351 0.864348 16.4627 1.3882C17.1762 1.95668 17.71 2.71932 18 3.58427C18.4638 4.92065 18.6921 6.32746 18.6746 7.74194ZM15.5452 7.72073C15.5452 5.31367 15.5373 3.90586 15.5138 3.50586C15.5209 2.83576 15.3504 2.17571 15.0196 1.59289C14.917 1.47874 14.7891 1.39023 14.6461 1.33439C14.503 1.27855 14.3489 1.25696 14.1961 1.27135C14.0708 1.26427 13.9454 1.28193 13.827 1.32338C13.7086 1.36483 13.5994 1.42925 13.5059 1.5129C13.2059 1.86763 13.0273 2.30902 12.9961 2.77252C12.9099 3.37017 12.8654 5.46168 12.8628 9.04704C12.8248 10.3576 12.893 11.6691 13.0667 12.9686C13.1111 13.3273 13.2643 13.6637 13.5059 13.9325C13.7185 14.1032 13.9866 14.1894 14.2589 14.1749C14.4024 14.1857 14.5465 14.1619 14.6789 14.1054C14.8113 14.0489 14.9282 13.9613 15.0196 13.8501C15.3507 13.3249 15.5224 12.7149 15.5138 12.0941L15.5452 7.72073ZM26.2197 0.568604V11.8392C26.1961 12.3841 26.233 12.9299 26.3295 13.4667C26.4165 13.7039 26.5827 13.9039 26.8 14.0329C27.1527 14.2068 27.5451 14.2839 27.9373 14.2564H28.2589V14.6345H20.9961V14.2564H21.3647C21.7929 14.2851 22.2219 14.2162 22.6196 14.0549C22.8548 13.941 23.0373 13.741 23.1294 13.4964C23.2516 12.953 23.2965 12.3951 23.2628 11.8392V4.69252C23.2831 4.29492 23.2542 3.89633 23.1765 3.50586C23.1061 3.33533 22.9822 3.19221 22.8235 3.098C22.659 2.98078 22.4608 2.92024 22.2588 2.92547C21.8205 2.94907 21.3912 3.0597 20.9961 3.25094L20.8157 2.88545L25.8902 0.568604H26.2197ZM44.9647 1.21955H49.3255V1.77327C47.8118 1.77327 47.3491 1.90192 47.3804 2.66898C47.3804 2.88545 47.4118 3.74975 47.4353 4.42818L47.9059 11.7372C48.0314 13.5859 48.0549 14.138 50.0784 14.0792V14.6345H43.6707V14.0792C44.9961 13.9874 45.8588 13.8933 45.8588 12.9364C45.8588 12.596 45.8275 11.9223 45.7961 11.549L45.2393 2.97799L40.1491 14.6345H39.5609L34.6353 2.97799L33.8589 12.1984C33.8353 12.5043 33.8039 12.9364 33.8039 13.1223C33.8039 13.8282 34.5647 14.0792 35.6784 14.0792V14.6345H30.502V14.0792C31.1843 14.0486 32.2589 13.9874 32.5647 13.5859C32.8408 12.8992 32.9768 12.1643 32.9647 11.4243L33.6471 3.25406C33.7412 1.96151 33.5216 1.9019 31.7647 1.77327V1.21955H36.1726L40.5255 11.4243L44.9647 1.21955ZM55.8667 1.9019V7.44935H59.2C60.3137 7.44935 60.6824 7.44937 60.8 5.78192H61.4197V9.94504H60.8C60.7373 8.25249 60.4941 8.1239 58.9882 8.1239H55.8667V12.5349C55.8667 13.8619 55.9294 13.8619 57.2549 13.8619H59.6C60.9883 13.8619 61.702 13.6753 62.2824 11.3639H62.8706L62.5883 14.6345H51.4588V14.1074C53.4353 14.1709 53.655 13.5858 53.655 12.3223V3.56388C53.655 1.99525 53.1843 1.74347 51.4588 1.77327V1.21955H62.0079L62.1255 4.149H61.5687C61.2392 2.10978 60.7373 1.9019 59.2314 1.9019H55.8667ZM64.4471 14.6345V14.0792C66.5099 13.9874 66.8471 13.8008 66.8471 12.0721V3.90194C66.8471 2.2988 66.6667 2.01956 64.4471 1.99132V1.43291C66.6773 1.19616 68.9181 1.07286 71.1608 1.06349C72.9177 1.06349 79.702 1.40388 79.702 7.72231C79.6939 9.21771 79.1863 10.6675 78.2597 11.8413C77.3332 13.0151 76.0409 13.8456 74.5882 14.2008C73.0258 14.5087 71.4356 14.6531 69.8432 14.6314H64.4471V14.6345ZM69.0667 1.77174V12.5333C69.0326 12.8865 69.0645 13.2428 69.1609 13.5843C69.3726 13.9498 70.5177 13.9859 70.9804 13.9859C76.4628 13.9859 77.302 9.88389 77.302 7.72389C77.302 6.36781 76.9647 3.56233 74.3059 2.39056C72.7687 1.7137 70.7922 1.7466 69.0667 1.77327V1.77174ZM88.7373 1.21802V1.77174C86.5177 1.86743 86.5177 2.20389 86.5177 4.08624V11.7357C86.5177 13.7058 86.9491 13.9498 88.8628 14.0776V14.6329H82.0785V14.0776C83.9922 14.0157 84.3295 13.7678 84.3295 11.6698V4.11683C84.3295 2.14036 83.8981 1.90037 81.9844 1.77174V1.21802H88.7373ZM96.2903 0.785841H98.5098L102.729 12.2564C103.255 13.738 103.349 13.9859 104.957 14.0776V14.6329H98.5098V14.0776C99.5608 14.047 100.604 14.0156 100.604 13.1498C100.55 12.566 100.404 11.9943 100.173 11.4557L99.2157 8.86743H94.7765L94.0707 10.6556C93.7501 11.3681 93.5512 12.1292 93.4824 12.9074C93.4824 13.8627 94.502 13.9521 95.6079 14.0839V14.6392H90.3059V14.0839C91.8824 13.7741 92.0628 13.2478 92.7765 11.4957L96.5962 1.69175L96.2903 0.785841ZM97.0589 2.94821L95.1138 7.96779H98.9098L97.0589 2.94821ZM106.557 4.20936L106.831 0.758411H107.263C107.368 0.939549 107.531 1.07994 107.726 1.15684C107.925 1.21062 108.131 1.23129 108.337 1.21802H117.341C118.18 1.21802 118.33 1.12625 118.486 0.758411H118.918L119.161 4.20936H118.667C118.235 2.26583 117.961 1.98974 116.541 1.98974H113.984V12.1325C113.984 13.8917 114.196 13.9498 116.51 14.0776V14.6329H109.231V14.0776C111.545 13.9859 111.765 13.8917 111.765 12.2564V1.98974H108.988C107.788 1.98974 107.694 2.05093 107.075 4.20936H106.557ZM121.592 7.75525C121.592 3.00858 125.569 0.696418 128.996 0.696418C132.541 0.696418 136.33 3.01093 136.33 7.75525C136.33 12.9317 132.353 15 128.965 15C125.6 15.0015 121.592 12.9364 121.592 7.75683V7.75525ZM133.929 7.78818C133.929 3.03837 131.553 1.21802 128.902 1.21802C125.726 1.21802 123.992 4.27055 123.992 7.50976C123.992 10.9004 124.831 12.2564 125.694 13.1207C126.114 13.5549 126.617 13.8991 127.174 14.1322C127.731 14.3653 128.33 14.4826 128.933 14.4768C131.271 14.4784 133.929 12.7192 133.929 7.78976V7.78818ZM142.988 8.80783V11.8902C142.988 13.7074 143.177 14.0792 144.502 14.0792H145.396V14.6345H138.581V14.0792H139.075C140.588 14.0792 140.769 13.4604 140.769 12.2894V3.56388C140.809 3.16717 140.724 2.76786 140.526 2.42192C140.275 2.08545 140.086 2.08544 138.549 1.99132V1.43291C140.351 1.2173 142.162 1.09399 143.977 1.06349C146.69 1.06349 149.953 1.68154 149.953 4.91919C149.953 7.44625 148.016 8.12077 147.027 8.46273C147.616 8.98508 147.804 9.16859 148.91 11.5458C149.898 13.6721 150.486 14.1043 151.624 14.2909V14.8494C149.498 14.7561 148.204 14.2611 146.902 12.2258C146.565 11.7019 145.239 9.26504 144.965 8.80543H142.988V8.80783ZM142.988 1.74349V8.25329H144.377C146.008 8.25329 147.647 7.51213 147.647 4.98272C147.677 4.54164 147.613 4.0992 147.457 3.68528C147.302 3.27135 147.06 2.89559 146.747 2.58334C146.434 2.27109 146.057 2.02964 145.643 1.87528C145.229 1.72093 144.786 1.65725 144.345 1.68859C143.82 1.68467 143.294 1.71367 142.988 1.74661V1.74349Z" fill="#F1931F"/>
</svg>
