<svg width="127" height="35" viewBox="0 0 127 35" fill="none" xmlns="http://www.w3.org/2000/svg">
<path d="M63.3182 34.6364C72.8828 34.6364 80.6364 26.8828 80.6364 17.3182C80.6364 7.75361 72.8828 0 63.3182 0C53.7536 0 46 7.75361 46 17.3182C46 26.8828 53.7536 34.6364 63.3182 34.6364Z" fill="#088155"/>
<path d="M73.6658 18.7118V25.8517H69.5263V19.1903C69.5263 17.5177 68.9286 16.3754 67.4298 16.3754C66.286 16.3754 65.6065 17.1444 65.3064 17.889C65.1975 18.1552 65.1694 18.5247 65.1694 18.8979V25.8514H61.0295C61.0295 25.8514 61.0851 14.5691 61.0295 13.4013H65.1697V15.1656C65.1613 15.1795 65.1496 15.1931 65.1422 15.2063H65.1697V15.1656C65.7198 14.3191 66.7009 13.1089 68.9005 13.1089C71.624 13.1089 73.6658 14.8884 73.6658 18.7118ZM56.6989 7.3999C55.2828 7.3999 54.3564 8.32944 54.3564 9.55071C54.3564 10.746 55.2559 11.7024 56.6445 11.7024H56.6714C58.1153 11.7024 59.013 10.746 59.013 9.55071C58.9855 8.32944 58.1153 7.3999 56.6989 7.3999ZM54.6024 25.8517H58.7407V13.4013H54.6024V25.8517Z" fill="white"/>
<path d="M17 0C7.61136 0 0 7.65049 0 17.0874C0 25.6544 6.27841 32.7278 14.4593 33.9635V21.6163H10.2533V17.1247H14.4593V14.1359C14.4593 9.18757 16.8578 7.01514 20.9494 7.01514C22.909 7.01514 23.9453 7.16116 24.436 7.22796V11.1487H21.6449C19.9078 11.1487 19.3012 12.8039 19.3012 14.6695V17.1247H24.3919L23.7011 21.6163H19.3012V34C27.5987 32.8684 34 25.7375 34 17.0874C34 7.65049 26.3886 0 17 0Z" fill="#084F35"/>
<g clip-path="url(#clip0)">
<path d="M109.636 0C118.986 0 126.636 7.65 126.636 17C126.636 26.35 118.986 34 109.636 34C100.286 34 92.6362 26.3499 92.6362 17C92.6362 7.65012 100.286 0 109.636 0Z" fill="#088155"/>
<path d="M120.028 13.4358V15.6765H122.269V17.9172H120.028V20.158H117.787V17.9172H115.547V15.6765H117.787V13.4358H120.028Z" fill="white"/>
<path d="M99.8616 22.3983C96.874 19.4107 96.874 14.1824 99.986 11.1949C102.227 8.9542 105.463 8.45634 108.326 9.57663L109.447 10.1991L110.692 11.0705L108.7 13.0622L107.953 12.5644C106.21 11.4441 103.72 11.6929 102.102 13.3112C100.235 15.1785 100.111 18.5395 102.102 20.5312C103.97 22.523 107.331 22.523 109.073 20.5312C109.571 20.0334 110.069 19.2864 110.194 18.5395V18.2905H105.712V15.8009H112.808L112.932 16.4234V18.1661C112.808 19.7844 112.185 21.4027 111.065 22.523C108.077 25.3858 102.849 25.3858 99.8616 22.3983Z" fill="white"/>
</g>
<defs>
<clipPath id="clip0">
<rect width="34" height="34" fill="white" transform="translate(92.6362)"/>
</clipPath>
</defs>
</svg>
