<svg width="51" height="31" viewBox="0 0 51 31" fill="none" xmlns="http://www.w3.org/2000/svg">
<path fill-rule="evenodd" clip-rule="evenodd" d="M38.1717 28.7075C36.0258 28.7075 30.4674 28.7161 26.3364 30.5177H26.1905C30.6376 28.6832 36.2313 28.3702 38.1505 28.3702H39.3599C39.6627 28.3114 39.9748 28.2282 40.2729 28.1294C40.989 27.8957 41.5992 27.5075 42.036 26.9075C42.5192 26.2518 42.6839 25.4126 42.6839 24.4753C42.6839 24.4753 42.6917 11.6604 42.6839 4.37255V3.6902L38.1513 3.68471C37.516 3.68471 36.5733 3.73177 35.4517 3.8753L35.7145 4.18118C36.7725 5.45804 37.5733 6.96785 38.0948 8.72236C38.6392 10.4792 38.9199 12.3255 38.9199 14.2635C38.9199 16.6204 38.5772 18.6957 37.9223 20.5137C37.2603 22.331 36.3654 23.8063 35.2501 24.9694C34.0901 26.1781 32.7246 27.0871 31.1294 27.702C30.1231 28.0886 29.0297 28.3569 27.8595 28.5028C29.8674 27.9663 31.4815 26.6369 32.6658 24.5781L32.9929 23.9765C34.3027 21.3851 34.9278 18.131 34.9309 14.2635C34.9309 10.1882 34.2799 6.8502 32.887 4.32706C30.7764 4.81177 28.4446 5.63216 26.436 6.99451C29.2101 8.96 31.3003 11.9686 31.3003 16.5577C31.3003 19.629 30.6823 22.2165 29.6282 23.8675C28.7003 25.2455 27.4015 26.0188 25.7474 26.0353C24.0737 26.0188 22.6901 25.142 21.7607 23.7561C20.6956 22.1059 20.1505 19.629 20.1505 16.5577C20.1505 11.9686 22.2344 8.96 25.0117 6.99451C23.0054 5.63216 20.6697 4.81177 18.5607 4.32628C17.167 6.8502 16.5168 10.1922 16.5168 14.2635C16.5168 18.131 17.1341 21.3882 18.4297 23.9765L18.7544 24.5781C19.9411 26.6432 21.5654 27.9749 23.5843 28.5122C22.2344 28.3482 21.0039 28.0243 19.8886 27.5514C18.1984 26.8345 16.8556 25.8549 15.8313 24.64C14.7333 23.3459 13.9027 21.829 13.3497 20.0706C12.8039 18.2847 12.5293 16.3569 12.5293 14.2635C12.5293 12.211 12.7929 10.3467 13.3199 8.65334C13.8572 6.97177 14.687 5.46118 15.8109 4.09883L16.0023 3.8753C14.8791 3.73177 13.9333 3.68471 13.2964 3.68471C8.75444 3.68471 8.76464 3.6902 8.76464 3.6902V4.37255C8.75444 11.6604 8.76464 24.4753 8.76464 24.4753C8.76464 25.4126 8.92699 26.2518 9.41169 26.9075C9.84777 27.5075 10.4572 27.8957 11.174 28.1294C11.4729 28.2282 11.7842 28.3114 12.0886 28.3702H13.2964C15.2188 28.3702 20.8133 28.6832 25.2588 30.5177H25.109C20.9795 28.7161 15.4211 28.7075 13.2964 28.7075H8.67601H0.901886L1.21953 28.5357C1.74424 28.4714 2.44228 28.3482 3.02502 28.1294C3.73797 27.8957 4.35601 27.5075 4.78895 26.9075C5.27522 26.2486 5.43757 25.3804 5.44071 24.4753C5.44071 24.4753 5.44699 4.06353 5.44228 0H6.41561C8.09875 1.9898 11.2493 3.12079 13.2964 3.35059C13.945 3.35059 15.007 3.38824 16.3082 3.53961C17.276 2.52314 18.4697 1.69333 19.9042 1.05333C21.0329 0.550588 22.2823 0.214902 23.6627 0.0454902C21.7082 0.562353 20.1066 1.8298 18.8792 3.78353C21.029 4.37883 23.5427 5.16471 25.7246 6.52628C27.9066 5.16471 30.418 4.37961 32.6541 3.9302C31.3545 1.81961 29.7568 0.548236 27.8101 0.0376471C29.2721 0.20549 30.5521 0.552941 31.658 1.07529C33.0172 1.70902 34.1764 2.5349 35.1411 3.53961C36.4368 3.38824 37.5035 3.35059 38.1513 3.35059C40.1984 3.12079 43.349 1.9898 45.029 0H46.0047C45.9968 4.06353 46.0047 24.4753 46.0047 24.4753C46.0047 25.3804 46.1686 26.2486 46.6549 26.9075C47.0909 27.5075 47.7058 27.8957 48.4188 28.1294C49 28.3482 49.6996 28.4714 50.2266 28.5357L50.5474 28.5686L38.1717 28.7075ZM21.4242 16.5577C21.4242 19.5851 21.785 21.993 22.5592 23.6016L22.5944 23.6722C23.2964 25.0753 24.3144 25.8471 25.7027 25.8604C27.1113 25.8471 28.145 25.0753 28.8478 23.6722C29.6297 22.0667 30.0266 19.5851 30.0266 16.5577C30.0266 12.3137 28.1984 9.43922 25.7246 7.51295C23.2501 9.43922 21.4242 12.3137 21.4242 16.5577Z" fill="#F1931F"/>
</svg>
