<svg width="15" height="20" viewBox="0 0 15 20" fill="none" xmlns="http://www.w3.org/2000/svg">
<path d="M12.75 7H11.875V5.25C11.875 2.835 9.915 0.875 7.5 0.875C5.085 0.875 3.125 2.835 3.125 5.25V7H2.25C1.2875 7 0.5 7.7875 0.5 8.75V17.5C0.5 18.4625 1.2875 19.25 2.25 19.25H12.75C13.7125 19.25 14.5 18.4625 14.5 17.5V8.75C14.5 7.7875 13.7125 7 12.75 7ZM4.7875 5.25C4.7875 3.75375 6.00375 2.5375 7.5 2.5375C8.99625 2.5375 10.2125 3.75375 10.2125 5.25V7H4.7875V5.25ZM10.125 14H8.375V15.75C8.375 16.2312 7.98125 16.625 7.5 16.625C7.01875 16.625 6.625 16.2312 6.625 15.75V14H4.875C4.39375 14 4 13.6062 4 13.125C4 12.6438 4.39375 12.25 4.875 12.25H6.625V10.5C6.625 10.0188 7.01875 9.625 7.5 9.625C7.98125 9.625 8.375 10.0188 8.375 10.5V12.25H10.125C10.6062 12.25 11 12.6438 11 13.125C11 13.6062 10.6062 14 10.125 14Z" fill="#744600"/>
</svg>
