<svg width="33" height="19" viewBox="0 0 33 19" fill="none" xmlns="http://www.w3.org/2000/svg">
<path d="M9.625 7.75H6.875V5C6.875 4.24375 6.25625 3.625 5.5 3.625C4.74375 3.625 4.125 4.24375 4.125 5V7.75H1.375C0.61875 7.75 0 8.36875 0 9.125C0 9.88125 0.61875 10.5 1.375 10.5H4.125V13.25C4.125 14.0063 4.74375 14.625 5.5 14.625C6.25625 14.625 6.875 14.0063 6.875 13.25V10.5H9.625C10.3813 10.5 11 9.88125 11 9.125C11 8.36875 10.3813 7.75 9.625 7.75ZM24.75 9.125C27.0325 9.125 28.8612 7.2825 28.8612 5C28.8612 2.7175 27.0325 0.875 24.75 0.875C24.31 0.875 23.8838 0.94375 23.4988 1.0675C24.2825 2.18125 24.7362 3.52875 24.7362 5C24.7362 6.47125 24.2688 7.805 23.4988 8.9325C23.8838 9.05625 24.31 9.125 24.75 9.125ZM17.875 9.125C20.1575 9.125 21.9862 7.2825 21.9862 5C21.9862 2.7175 20.1575 0.875 17.875 0.875C15.5925 0.875 13.75 2.7175 13.75 5C13.75 7.2825 15.5925 9.125 17.875 9.125ZM17.875 11.875C15.125 11.875 9.625 13.25 9.625 16V17.375C9.625 18.1313 10.2437 18.75 11 18.75H24.75C25.5063 18.75 26.125 18.1313 26.125 17.375V16C26.125 13.25 20.625 11.875 17.875 11.875ZM26.9775 12.095C28.1188 13.0988 28.875 14.3775 28.875 16V18.0625C28.875 18.2962 28.8475 18.53 28.8063 18.75H32.3125C32.6975 18.75 33 18.4475 33 18.0625V16C33 13.8825 29.7413 12.5763 26.9775 12.095Z" fill="#425A8D"/>
</svg>
