<svg width="24" height="24" viewBox="0 0 24 24" fill="none" xmlns="http://www.w3.org/2000/svg">
<path d="M20.75 0.75H3.2375C1.8625 0.75 0.75 1.875 0.75 3.25L0.7625 20.75C0.7625 22.125 1.875 23.25 3.25 23.25H15.75L23.25 15.75V3.25C23.25 1.875 22.125 0.75 20.75 0.75ZM7 7H17C17.6875 7 18.25 7.5625 18.25 8.25C18.25 8.9375 17.6875 9.5 17 9.5H7C6.3125 9.5 5.75 8.9375 5.75 8.25C5.75 7.5625 6.3125 7 7 7ZM10.75 14.5H7C6.3125 14.5 5.75 13.9375 5.75 13.25C5.75 12.5625 6.3125 12 7 12H10.75C11.4375 12 12 12.5625 12 13.25C12 13.9375 11.4375 14.5 10.75 14.5ZM14.5 21.375V15.75C14.5 15.0625 15.0625 14.5 15.75 14.5H21.375L14.5 21.375Z" fill="#20613B"/>
</svg>
