<svg width="33" height="31" viewBox="0 0 33 31" fill="none" xmlns="http://www.w3.org/2000/svg">
<path d="M29.883 26.2671C31.7112 24.2914 32.7079 21.8489 32.7079 19.304C32.7079 16.1198 31.1462 13.2361 28.6451 11.1901C28.5879 18.4856 21.7764 24.4192 13.4096 24.4192H7.74707C9.93717 28.0574 14.3872 30.5575 19.5038 30.5575H31.6922C32.1048 30.5575 32.473 30.3081 32.6317 29.9245C32.7904 29.5408 32.7015 29.0997 32.4095 28.8119L29.883 26.2671Z" fill="#FFD7A6"/>
<path d="M13.3428 0C5.98595 0 0.00166938 5.01646 0.00166938 11.1901C0.00166938 13.7205 1.00867 16.1429 2.85591 18.1139L0.303128 20.6444C0.00808341 20.9369 -0.0817129 21.3756 0.0786376 21.7507C0.238988 22.1322 0.611001 22.3801 1.02791 22.3801H13.3428C20.6997 22.3801 26.684 17.3637 26.684 11.1901C26.684 5.01646 20.6997 0 13.3428 0Z" fill="#F1931F"/>
<path d="M19.4211 8.17651H7.15634C6.59421 8.17651 6.13428 8.63644 6.13428 9.19858C6.13428 9.76071 6.59421 10.2206 7.15634 10.2206H19.4211C19.9833 10.2206 20.4432 9.76071 20.4432 9.19858C20.4432 8.63644 19.9833 8.17651 19.4211 8.17651Z" fill="#FAFAFA"/>
<path d="M15.3329 12.2648H7.15634C6.59421 12.2648 6.13428 12.7247 6.13428 13.2868C6.13428 13.849 6.59421 14.3089 7.15634 14.3089H15.3329C15.895 14.3089 16.3549 13.849 16.3549 13.2868C16.3549 12.7247 15.895 12.2648 15.3329 12.2648Z" fill="#FAFAFA"/>
</svg>
