<svg width="37" height="37" viewBox="0 0 37 37" fill="none" xmlns="http://www.w3.org/2000/svg">
<g clip-path="url(#clip0)">
<path d="M4.78824 32.3569H3.33726C2.73655 32.3569 2.24902 31.8693 2.24902 31.2686C2.24902 30.6679 2.73655 30.1804 3.33726 30.1804H4.78824V27.7137H3.33726C2.73655 27.7137 2.24902 27.2262 2.24902 26.6255C2.24902 26.0248 2.73655 25.5373 3.33726 25.5373H4.78824V23.0706H3.33726C2.73655 23.0706 2.24902 22.5831 2.24902 21.9823C2.24902 21.3816 2.73655 20.8941 3.33726 20.8941H4.78824V16.251H1.08824C0.487529 16.251 0 16.7385 0 17.3392V35.9118C0 36.5125 0.487529 37 1.08824 37H4.79136C4.78722 35.5533 4.78824 36.4954 4.78824 32.3569Z" fill="#FFD7A6"/>
<path d="M22.7801 1.08824C22.7801 0.487529 22.2926 0 21.6919 0H12.4056C11.8049 0 11.3174 0.487529 11.3174 1.08824V2.46667H22.7801V1.08824Z" fill="#FFD7A6"/>
<path d="M29.5277 14.5098C25.4077 14.5098 22.0552 17.8623 22.0552 21.9824C22.0552 25.2819 26.514 30.0136 28.7986 32.0769C29.2136 32.4498 29.8411 32.4505 30.2568 32.0769C32.5944 29.9657 37.0003 25.263 37.0003 21.9824C37.0003 17.8623 33.6478 14.5098 29.5277 14.5098ZM31.2689 23.0706H27.7865C27.1858 23.0706 26.6983 22.5831 26.6983 21.9824C26.6983 21.3817 27.1858 20.8941 27.7865 20.8941H31.2689C31.8696 20.8941 32.3571 21.3817 32.3571 21.9824C32.3571 22.5831 31.8696 23.0706 31.2689 23.0706Z" fill="#F1931F"/>
<path d="M35.9119 34.8235H27.1335V33.5024C24.1751 30.7403 19.8786 26.0179 19.8786 21.9823C19.8786 17.4879 22.967 13.7016 27.1335 12.6344V5.73136C27.1335 5.13066 26.6459 4.64313 26.0452 4.64313H8.05308C7.45237 4.64313 6.96484 5.13066 6.96484 5.73136V37H35.9119C36.5129 37 37.0001 36.5128 37.0001 35.9118C37.0001 35.3108 36.5129 34.8235 35.9119 34.8235ZM19.6609 6.9647H21.4021C22.0028 6.9647 22.4903 7.45223 22.4903 8.05293C22.4903 8.65364 22.0028 9.14117 21.4021 9.14117H19.6609C19.0602 9.14117 18.5727 8.65364 18.5727 8.05293C18.5727 7.45223 19.0602 6.9647 19.6609 6.9647ZM14.4374 27.7137H12.6962C12.0955 27.7137 11.608 27.2262 11.608 26.6255C11.608 26.0248 12.0955 25.5372 12.6962 25.5372H14.4374C15.0381 25.5372 15.5256 26.0248 15.5256 26.6255C15.5256 27.2262 15.0381 27.7137 14.4374 27.7137ZM14.4374 23.0706H12.6962C12.0955 23.0706 11.608 22.583 11.608 21.9823C11.608 21.3816 12.0955 20.8941 12.6962 20.8941H14.4374C15.0381 20.8941 15.5256 21.3816 15.5256 21.9823C15.5256 22.583 15.0381 23.0706 14.4374 23.0706ZM14.4374 18.4274H12.6962C12.0955 18.4274 11.608 17.9399 11.608 17.3392C11.608 16.7385 12.0955 16.251 12.6962 16.251H14.4374C15.0381 16.251 15.5256 16.7385 15.5256 17.3392C15.5256 17.9399 15.0381 18.4274 14.4374 18.4274ZM14.4374 13.7843H12.6962C12.0955 13.7843 11.608 13.2968 11.608 12.6961C11.608 12.0954 12.0955 11.6078 12.6962 11.6078H14.4374C15.0381 11.6078 15.5256 12.0954 15.5256 12.6961C15.5256 13.2968 15.0381 13.7843 14.4374 13.7843ZM14.4374 9.14117H12.6962C12.0955 9.14117 11.608 8.65364 11.608 8.05293C11.608 7.45223 12.0955 6.9647 12.6962 6.9647H14.4374C15.0381 6.9647 15.5256 7.45223 15.5256 8.05293C15.5256 8.65364 15.0381 9.14117 14.4374 9.14117ZM18.5727 12.6961C18.5727 12.0954 19.0602 11.6078 19.6609 11.6078H21.4021C22.0028 11.6078 22.4903 12.0954 22.4903 12.6961C22.4903 13.2968 22.0028 13.7843 21.4021 13.7843H19.6609C19.0602 13.7843 18.5727 13.2968 18.5727 12.6961Z" fill="#FFD7A6"/>
</g>
<defs>
<clipPath id="clip0">
<rect width="37" height="37" fill="white"/>
</clipPath>
</defs>
</svg>
