<svg width="38" height="33" viewBox="0 0 38 33" fill="none" xmlns="http://www.w3.org/2000/svg">
<path d="M36.4674 19.1162C35.8645 18.2986 35.5851 17.3001 35.5862 16.2909C35.5863 16.2851 35.5863 16.2792 35.5863 16.2733C35.5863 7.28581 28.1604 0 19 0C16.9961 0 15.076 0.349924 13.2979 0.98942C12.336 1.33534 11.2823 1.40183 10.2961 1.12928C9.42499 0.888525 8.49445 0.786979 7.53045 0.852072C3.48101 1.12546 0.220993 4.38153 0.0111517 8.35864C-0.0890298 10.257 0.491208 12.0179 1.53264 13.4303C2.13553 14.2478 2.41494 15.2464 2.41371 16.2555C2.41371 16.2614 2.41371 16.2672 2.41371 16.2732C2.41371 25.2606 9.83955 32.5464 19 32.5464C21.004 32.5464 22.9241 32.1965 24.7021 31.557C25.664 31.2111 26.7177 31.1446 27.7039 31.4171C28.575 31.6579 29.5055 31.7594 30.4696 31.6943C34.519 31.421 37.7789 28.165 37.9888 24.188C38.089 22.2896 37.5088 20.5286 36.4674 19.1162ZM19.6072 13.3558C22.9516 14.1361 28.0054 15.3152 28.0054 20.777C28.0054 23.4676 26.6549 25.5201 24.2025 26.5562C22.4525 27.2957 20.4719 27.3955 18.7652 27.3955C13.5205 27.3955 10.208 23.3943 10.0695 23.2239C9.2106 22.167 9.38736 20.6269 10.4647 19.7842C11.5418 18.9412 13.1115 19.115 13.9706 20.1717C13.9783 20.1807 15.9593 22.4129 18.7652 22.5002C22.1441 22.6054 22.916 21.619 23.0158 20.7771C23.1378 19.7488 22.2055 18.9939 18.4526 18.1183C15.2716 17.376 10.464 16.2544 10.464 11.2242C10.464 9.65781 11.1133 4.54687 19.4692 4.54687C24.7454 4.54687 27.8597 8.62255 27.9897 8.79607C28.8058 9.88527 28.5675 11.4174 27.4574 12.2179C26.3521 13.015 24.8003 12.7869 23.9812 11.711C23.9224 11.6368 22.1397 9.69092 19.4692 9.44217C17.4485 9.25386 15.4534 9.96877 15.4534 11.0249C15.4534 12.1438 16.0264 12.5202 19.6072 13.3558Z" fill="#F1931F"/>
</svg>
