<svg width="44" height="36" viewBox="0 0 44 36" fill="none" xmlns="http://www.w3.org/2000/svg">
<path d="M22 17.6064C26.1584 17.6064 29.5298 13.665 29.5298 8.80324C29.5298 3.94136 28.4227 0 22 0C15.577 0 14.4702 3.94136 14.4702 8.80324C14.4703 13.665 17.8416 17.6064 22 17.6064Z" fill="#F1931F"/>
<path d="M36.2057 30.6924C36.0664 22.2228 34.9172 19.8095 26.1235 18.2818C26.1235 18.2818 24.8854 19.8 22.0002 19.8C19.115 19.8 17.8771 18.2818 17.8771 18.2818C9.17927 19.7927 7.96 22.1704 7.79974 30.4172C7.78671 31.0906 7.7807 31.1259 7.77832 31.0477C7.77877 31.1942 7.77945 31.4651 7.77945 31.9376C7.77945 31.9376 9.87311 36 22.0003 36C34.1275 36 36.2213 31.9376 36.2213 31.9376C36.2213 31.6341 36.2216 31.4229 36.2218 31.2794C36.2194 31.3277 36.2146 31.234 36.2057 30.6924Z" fill="#F1931F"/>
<path d="M32.4494 16.0346C35.827 16.0346 38.5649 12.8336 38.5649 8.8849C38.5649 4.93611 37.666 1.73505 32.4494 1.73505C31.572 1.73505 30.8169 1.82592 30.1674 1.99556C31.3723 4.13353 31.5374 6.73034 31.5374 8.80319C31.5374 11.1502 30.8764 13.3909 29.6592 15.2462C30.4958 15.7491 31.4439 16.0346 32.4494 16.0346Z" fill="#FFD7A6"/>
<path d="M43.9868 26.6627C43.8735 19.784 42.9403 17.8239 35.7981 16.5831C35.7981 16.5831 34.7927 17.8163 32.4494 17.8163C32.3525 17.8163 32.2585 17.8135 32.166 17.8094C33.6549 18.4556 35.0094 19.3552 36.0069 20.6717C37.7313 22.9477 38.1277 26.0051 38.2095 30.4967C43.0146 29.5827 43.9994 27.6742 43.9994 27.6742C43.9994 27.4255 43.9994 27.2548 43.9999 27.1382C43.998 27.1792 43.994 27.1057 43.9868 26.6627Z" fill="#FFD7A6"/>
<path d="M11.5504 16.0346C12.556 16.0346 13.5038 15.7491 14.3408 15.2463C13.1236 13.391 12.4626 11.1503 12.4626 8.80326C12.4626 6.7303 12.6277 4.13349 13.8324 1.99562C13.183 1.82598 12.428 1.73511 11.5504 1.73511C6.33382 1.73511 5.43506 4.93618 5.43506 8.88497C5.43506 12.8335 8.17304 16.0346 11.5504 16.0346Z" fill="#FFD7A6"/>
<path d="M11.8336 17.8094C11.7414 17.8134 11.6474 17.8162 11.5503 17.8162C9.20695 17.8162 8.20154 16.5831 8.20154 16.5831C1.05958 17.8239 0.126143 19.7838 0.0130336 26.6627C0.00566679 27.1058 0.00192671 27.1793 0 27.1381C0.000226672 27.2547 0.000453343 27.4254 0.000453343 27.6741C0.000453343 27.6741 0.985341 29.5827 5.7901 30.4966C5.87227 26.0051 6.26849 22.9477 7.99312 20.6716C8.99048 19.3553 10.3447 18.4555 11.8336 17.8094Z" fill="#FFD7A6"/>
</svg>
